<?xml version="1.0" encoding="UTF-8"?>
<svg id="Lag_2" data-name="Lag 2" xmlns="http://www.w3.org/2000/svg" viewBox="0 0 237.21 99.77">
  <defs>
    <style>
      .cls-1 {
        fill: #0c0c0c;
      }
    </style>
  </defs>
  <g id="Lag_1-2" data-name="Lag 1-2">
    <g>
      <path class="cls-1" d="M30.46,40.77c-15.4,6.79-25.21-2.73-28.57-10.35C-2.42,20.65,.29,8.11,13.66,2.22c15.4-6.79,25.3,3.55,28.3,10.34,4.94,11.21,.32,23.01-11.5,28.21ZM9.95,24.62c3.99,9.05,12.86,14.51,19.54,11.56,4.36-1.92,8.87-8,4.61-17.66C30.5,10.36,22.24,3.58,14.45,7.01c-2.37,1.05-9.78,5.63-4.5,17.61Z"/>
      <path class="cls-1" d="M86.49,2.63c-3.26,.66-3.68,1.93-3.68,6.7v24.44c0,4.83,.42,6.1,3.68,6.7v1.21h-12.07v-1.21c2.78-.84,3.44-1.39,3.44-6.7v-3.14c0-2.35-.48-3.38-1.57-4.41L56.13,7.52v26.25c0,5.19,.6,5.91,3.5,6.7v1.21h-11.89v-1.21c3.14-.66,3.62-1.81,3.62-6.7V9.33c0-4.89-.42-5.97-3.62-6.7V1.42h18.16v1.21c-.78,.18-1.21,.48-1.21,1.15s.3,.97,1.21,1.87l11.95,11.16v-7.48c0-5.31-.66-5.79-3.44-6.7V1.42h12.07v1.21h.01Z"/>
      <path class="cls-1" d="M148.35,13.85l-.78,.18c-3.08-6.28-6.82-8.27-13.28-8.63v28.36c0,4.71,.3,6.58,4.65,6.7v1.21h-18.16v-1.21c4.22-.12,4.59-2.05,4.59-6.7V5.4c-5.61,.24-11.28,2.59-13.4,8.63l-.78-.18,2.72-13.34c.72,.91,1.87,.91,3.38,.91h24.56c2.66,0,2.96-.18,3.62-.91l2.9,13.34h-.02Z"/>
      <path class="cls-1" d="M194.12,2.63c-3.38,.6-3.74,2.05-3.74,6.7v24.44c0,4.71,.36,6.1,3.74,6.7v1.21h-16.71v-1.21c3.68-.42,3.98-2.11,3.98-6.7V16.14h-15.81v17.62c0,4.65,.36,6.21,3.92,6.7v1.21h-16.53v-1.21c3.26-.66,3.62-1.87,3.62-6.7V9.33c0-4.83-.36-6.03-3.62-6.7V1.42h16.53v1.21c-3.56,.48-3.92,2.11-3.92,6.7v3.2h15.81v-3.2c0-4.59-.3-6.28-3.98-6.7V1.42h16.71v1.21Z"/>
      <path class="cls-1" d="M233.45,14.03l-.84,.36c-1.33-2.65-4.89-9.35-14.66-9.35-4.89,0-5.55,1.99-5.55,5.19v3.74h4.89c4.59,0,5.91-.96,6.03-4.58l.84-.12,2.53,14.9-.84,.18c-1.81-3.74-3.38-6.76-10.2-6.76h-3.26v14.06c0,3.86,.18,6.46,6.34,6.46s10.08-2.9,12.01-4.65c3.44-3.26,4.59-5.67,5.37-7l.84,.42-5.19,15.75c-.18-.24-.48-.48-.84-.66s-.84-.3-1.51-.3h-29.63v-1.21c3.26-.66,3.62-1.87,3.62-6.7V9.33c0-4.83-.36-6.03-3.62-6.7V1.42h27.51c2.17,0,2.59-.36,3.26-.91l2.9,13.52h0Z"/>
      <path class="cls-1" d="M45.16,98.23H28.02v-1.3c.97-.07,2.6-.26,2.6-2.14,0-2.14-1.88-6.3-3.83-9.29-2.27-3.51-4.81-6.56-6.62-8.7-2.53,.78-2.99,.84-5.59,1.56v11.36c0,4.87,.33,6.75,4.35,7.21v1.3H.94v-1.3c3.57-.65,3.96-2.08,3.96-7.21v-26.3c0-5.13-.39-6.49-3.96-7.21v-1.3H27.3c4.74,0,11.3,.71,11.3,7.08s-6.04,9.55-9.16,11.17c4.42,5.13,7.73,10.45,9.94,15.65,.39,.84,1.88,4.48,2.27,5.2,1.3,2.47,2.14,2.73,3.51,2.92,0,0,0,1.3,0,1.3Zm-30.59-24.16c4.09-1.04,14.09-3.51,14.09-9.81,0-4.22-4.03-5.52-8.12-5.52-5.97,0-5.97,1.75-5.97,5.07,0,0,0,10.26,0,10.26Z"/>
      <path class="cls-1" d="M78.79,97.27c-16.58,7.31-27.13-2.94-30.75-11.14-4.64-10.52-1.72-24.01,12.66-30.35,16.58-7.31,27.23,3.82,30.46,11.13,5.32,12.06,.34,24.76-12.38,30.37h0Zm-22.07-17.39c4.3,9.74,13.84,15.62,21.03,12.45,4.69-2.07,9.55-8.61,4.96-19.01-3.88-8.79-12.77-16.09-21.15-12.39-2.56,1.13-10.53,6.06-4.84,18.96h0Z"/>
      <path class="cls-1" d="M139.53,69.98l-.84,.32c-1.82-3.57-5.85-11.49-15.07-11.49-8.05,0-13.44,6.56-13.44,15.52,0,2.47,.65,10.78,6.69,15.72,3.18,2.6,7.4,4.29,11.75,4.29,9.68,0,12.99-7.27,13.96-9.35l.97,.39-5.13,14.03c-.26-.26-.45-.39-.78-.52-.32-.13-.71-.2-1.49-.2-.52,0-1.23,.07-1.62,.07-4.68,.45-5.26,.45-7.34,.45-18.31,0-27.47-10.97-27.47-23.77,0-3.83,.91-11.04,6.62-16.1,4.87-4.35,11.36-5.39,16.56-5.39,3.18,0,5.52,.39,8.18,.84,.19,0,1.49,.26,2.21,.26,1.95,0,2.47-.91,2.92-1.69l3.31,16.62h0Z"/>
      <path class="cls-1" d="M190.83,56.21c-2.34,.52-5.13,1.17-12.6,7.08l-3.77,3.05c8.05,8.18,10.72,13.57,15.33,25.65,1.69,4.48,3.12,4.87,4.81,4.94v1.3h-17.66v-1.3c1.04-.07,2.6-.26,2.6-2.34,0-2.4-2.08-7.99-3.77-10.97-2.66-4.61-5.84-7.99-8.57-10.84l-4.48,3.31v13.64c0,4.87,.33,6.75,4.29,7.21v1.3h-17.86v-1.3c3.51-.71,3.9-2.01,3.9-7.21v-26.3c0-5.2-.39-6.49-3.9-7.21v-1.3h17.66v1.3c-3.7,.59-4.09,2.21-4.09,7.21v7.66l6.17-5c5.13-4.16,7.14-5.78,7.14-7.79,0-.52-.2-1.82-2.34-2.08v-1.3h17.14v1.3h0Z"/>
      <path class="cls-1" d="M232.66,67.77l-.91,.19c-3.18-6.49-9.35-9.35-13.57-9.35-3.9,0-7.79,2.14-7.79,5.33,0,2.92,3.7,4.03,5.91,4.68l10.06,2.92c2.4,.71,10.85,3.25,10.85,11.82,0,6.1-4.74,15.84-19.81,15.84-2.6,0-4.74-.19-7.34-.78-2.92-.65-4.09-.97-5-.97-1.62,0-2.34,.58-3.18,1.43l-2.79-17.73,.91-.19c.58,2.21,1.69,6.23,5.52,9.55,3.31,2.86,7.27,3.96,10.91,3.96,5.13,0,11.04-2.47,11.04-7.27,0-3.9-4.03-5.33-7.6-6.36l-9.42-2.79c-4.42-1.36-9.61-4.42-9.61-10.72,0-4.74,4.03-13.38,16.23-13.38,4.42,0,8.44,1.36,9.87,1.36,1.23,0,2.47-.39,3.44-1.36l2.27,13.83h0Z"/>
    </g>
  </g>
</svg>