<?xml version="1.0" encoding="UTF-8"?>
<svg id="Lag_2" data-name="Lag 2" xmlns="http://www.w3.org/2000/svg" viewBox="0 0 217.85 231.44">
  <defs>
    <style>
      .cls-1 {
        fill: #0c0c0c;
      }
    </style>
  </defs>
  <g id="Lag_1-2" data-name="Lag 1-2">
    <g>
      <g>
        <g>
          <rect class="cls-1" x="106.95" y="23.52" width="4.33" height="6.63"/>
          <rect class="cls-1" x="106.95" y="34.48" width="4.33" height="19.99"/>
        </g>
        <rect class="cls-1" x="79.56" y="29.19" width="4.33" height="34.02" transform="translate(-11.81 54.29) rotate(-34.42)"/>
        <rect class="cls-1" x="119.64" y="43.22" width="32.79" height="4.33" transform="translate(22.57 133.08) rotate(-56.15)"/>
        <g>
          <polygon class="cls-1" points="158.73 58.63 160.91 62.37 136.99 74.15 135.08 70.27 158.73 58.63"/>
          <polygon class="cls-1" points="173.04 56.4 164.8 60.46 162.62 56.72 171.13 52.52 173.04 56.4"/>
        </g>
        <g>
          <polygon class="cls-1" points="47.12 52.53 55.55 56.74 53.37 60.48 45.19 56.4 47.12 52.53"/>
          <polygon class="cls-1" points="82.68 70.27 80.76 74.14 57.25 62.42 59.43 58.67 82.68 70.27"/>
        </g>
        <path class="cls-1" d="M131.21,80.23l-21.93-18.84-21.93,18.84H48.86v4.33h120.64v-4.33h-38.29Zm-37.23,0l15.29-13.13,15.29,13.13h-30.58Z"/>
        <g>
          <rect class="cls-1" x="19.42" y="80.23" width="25.11" height="4.33"/>
          <rect class="cls-1" x="173.83" y="80.23" width="24.99" height="4.33"/>
        </g>
      </g>
      <g>
        <path class="cls-1" d="M42.37,135.78c-11.64,5.13-19.06-2.07-21.59-7.83-3.26-7.39-1.2-16.87,8.9-21.32,11.64-5.13,19.13,2.68,21.39,7.82,3.74,8.47,.24,17.39-8.69,21.33h-.01Zm-15.5-12.21c3.02,6.84,9.72,10.97,14.77,8.74,3.3-1.45,6.71-6.05,3.49-13.35-2.72-6.18-8.97-11.3-14.85-8.7-1.79,.79-7.39,4.26-3.4,13.31h-.01Z"/>
        <path class="cls-1" d="M84.72,106.95c-2.46,.5-2.78,1.46-2.78,5.06v18.47c0,3.65,.32,4.61,2.78,5.06v.91h-9.12v-.91c2.1-.64,2.6-1.05,2.6-5.06v-2.37c0-1.78-.37-2.55-1.19-3.33l-15.23-14.14v19.84c0,3.92,.46,4.47,2.65,5.06v.91h-8.99v-.91c2.37-.5,2.74-1.37,2.74-5.06v-18.47c0-3.69-.32-4.52-2.74-5.06v-.91h13.73v.91c-.59,.14-.91,.37-.91,.87s.23,.73,.91,1.41l9.03,8.44v-5.66c0-4.01-.5-4.38-2.6-5.06v-.91h9.12v.91h0Z"/>
        <path class="cls-1" d="M131.49,115.43l-.59,.14c-2.33-4.74-5.15-6.25-10.03-6.52v21.44c0,3.56,.23,4.97,3.51,5.06v.91h-13.73v-.91c3.19-.09,3.47-1.55,3.47-5.06v-21.44c-4.24,.18-8.53,1.96-10.13,6.52l-.59-.14,2.05-10.08c.55,.68,1.41,.68,2.55,.68h18.56c2.01,0,2.24-.14,2.74-.68l2.19,10.08h0Z"/>
        <path class="cls-1" d="M166.08,106.95c-2.55,.46-2.83,1.55-2.83,5.06v18.47c0,3.56,.27,4.61,2.83,5.06v.91h-12.63v-.91c2.78-.32,3.01-1.6,3.01-5.06v-13.32h-11.95v13.32c0,3.51,.27,4.7,2.97,5.06v.91h-12.5v-.91c2.46-.5,2.74-1.41,2.74-5.06v-18.47c0-3.65-.27-4.56-2.74-5.06v-.91h12.5v.91c-2.69,.37-2.97,1.6-2.97,5.06v2.42h11.95v-2.42c0-3.47-.23-4.74-3.01-5.06v-.91h12.63v.91Z"/>
        <path class="cls-1" d="M195.82,115.57l-.64,.27c-1-2.01-3.69-7.07-11.08-7.07-3.69,0-4.2,1.51-4.2,3.92v2.83h3.69c3.47,0,4.47-.73,4.56-3.47l.64-.09,1.92,11.27-.64,.14c-1.37-2.83-2.55-5.11-7.71-5.11h-2.46v10.63c0,2.92,.14,4.88,4.79,4.88,4.88,0,7.62-2.19,9.08-3.51,2.6-2.46,3.47-4.29,4.06-5.29l.64,.32-3.92,11.9c-.14-.18-.36-.37-.64-.5-.27-.14-.64-.23-1.14-.23h-22.39v-.91c2.46-.5,2.74-1.41,2.74-5.06v-18.47c0-3.65-.27-4.56-2.74-5.06v-.91h20.8c1.64,0,1.96-.27,2.46-.68l2.19,10.22v-.02Z"/>
        <path class="cls-1" d="M53.49,179.21h-12.96v-.98c.74-.05,1.96-.2,1.96-1.62,0-1.62-1.42-4.76-2.9-7.02-1.72-2.65-3.63-4.96-5.01-6.58-1.91,.59-2.26,.64-4.22,1.18v8.59c0,3.68,.25,5.11,3.29,5.45v.98h-13.6v-.98c2.7-.49,2.99-1.57,2.99-5.45v-19.88c0-3.88-.29-4.91-2.99-5.45v-.98h19.93c3.58,0,8.54,.54,8.54,5.35s-4.57,7.22-6.92,8.44c3.34,3.88,5.84,7.9,7.51,11.83,.29,.64,1.42,3.39,1.72,3.93,.98,1.87,1.62,2.06,2.65,2.21v.98h0Zm-23.12-18.26c3.09-.79,10.65-2.65,10.65-7.41,0-3.19-3.04-4.17-6.14-4.17-4.52,0-4.52,1.33-4.52,3.83v7.76h.01Z"/>
        <path class="cls-1" d="M78.9,178.48c-12.53,5.52-20.51-2.22-23.24-8.42-3.5-7.95-1.3-18.15,9.57-22.94,12.53-5.53,20.59,2.89,23.02,8.41,4.02,9.12,.26,18.72-9.35,22.95Zm-16.68-13.14c3.25,7.37,10.46,11.8,15.9,9.41,3.55-1.56,7.22-6.51,3.75-14.37-2.93-6.65-9.65-12.16-15.99-9.37-1.93,.85-7.96,4.58-3.66,14.33h0Z"/>
        <path class="cls-1" d="M124.82,157.86l-.64,.25c-1.38-2.7-4.42-8.69-11.39-8.69-6.09,0-10.16,4.96-10.16,11.73,0,1.86,.49,8.15,5.06,11.88,2.41,1.96,5.6,3.24,8.88,3.24,7.31,0,9.82-5.5,10.55-7.07l.74,.29-3.88,10.6c-.2-.2-.34-.29-.59-.39-.24-.1-.54-.15-1.13-.15-.39,0-.93,.05-1.23,.05-3.53,.34-3.98,.34-5.55,.34-13.84,0-20.76-8.3-20.76-17.97,0-2.9,.69-8.34,5.01-12.17,3.68-3.29,8.59-4.07,12.52-4.07,2.4,0,4.17,.29,6.19,.64,.15,0,1.13,.2,1.67,.2,1.47,0,1.87-.69,2.21-1.28l2.5,12.57h0Z"/>
        <path class="cls-1" d="M163.6,147.45c-1.77,.39-3.88,.88-9.52,5.35l-2.85,2.31c6.09,6.19,8.1,10.26,11.59,19.39,1.28,3.39,2.36,3.68,3.63,3.73v.98h-13.35v-.98c.79-.05,1.96-.2,1.96-1.77,0-1.82-1.57-6.04-2.85-8.3-2.01-3.49-4.42-6.04-6.48-8.2l-3.39,2.5v10.31c0,3.68,.25,5.11,3.24,5.45v.98h-13.5v-.98c2.65-.54,2.95-1.52,2.95-5.45v-19.88c0-3.93-.29-4.91-2.95-5.45v-.98h13.35v.98c-2.8,.44-3.09,1.67-3.09,5.45v5.79l4.66-3.78c3.88-3.14,5.4-4.37,5.4-5.89,0-.39-.15-1.37-1.77-1.57v-.98h12.96v.98h0Z"/>
        <path class="cls-1" d="M195.22,156.19l-.69,.15c-2.4-4.91-7.07-7.07-10.26-7.07-2.95,0-5.89,1.62-5.89,4.03,0,2.21,2.8,3.04,4.47,3.53l7.61,2.21c1.82,.54,8.2,2.45,8.2,8.93,0,4.61-3.58,11.98-14.97,11.98-1.96,0-3.58-.15-5.55-.59-2.21-.49-3.09-.74-3.78-.74-1.23,0-1.77,.44-2.4,1.08l-2.11-13.4,.69-.15c.44,1.67,1.28,4.71,4.17,7.22,2.5,2.16,5.5,2.99,8.25,2.99,3.88,0,8.34-1.87,8.34-5.5,0-2.95-3.04-4.03-5.74-4.81l-7.12-2.11c-3.34-1.03-7.26-3.34-7.26-8.1,0-3.58,3.04-10.11,12.27-10.11,3.34,0,6.38,1.03,7.46,1.03,.93,0,1.86-.29,2.6-1.03l1.72,10.46h-.01Z"/>
      </g>
      <path class="cls-1" d="M217.85,231.44H0V108.92C0,79.83,11.33,52.48,31.9,31.9,52.48,11.33,79.83,0,108.92,0s56.45,11.33,77.02,31.9c20.57,20.57,31.9,47.93,31.9,77.02v122.52h.01ZM2.33,229.11H215.52V108.92c0-28.47-11.09-55.24-31.22-75.37C164.17,13.42,137.4,2.33,108.92,2.33S53.68,13.42,33.55,33.55C13.42,53.68,2.33,80.45,2.33,108.92v120.19Z"/>
      <g>
        <path class="cls-1" d="M28.75,206.91v.43c0,2.43-1.15,3.73-3.55,3.73h-3.32v-13.79h3.24c2.41,0,3.46,1.24,3.46,3.32v.47c0,1.5-.72,2.43-1.75,2.72,1.09,.33,1.92,1.16,1.92,3.13h0Zm-4.83-8.15v4.47h1.03c1.13,0,1.53-.66,1.53-2.16v-.45c0-1.3-.45-1.86-1.55-1.86h-1.01Zm2.74,8.1c0-1.61-.49-2.19-1.63-2.19h-1.11v4.85h1.22c1.13,0,1.51-.76,1.51-2.17v-.49h.01Z"/>
        <path class="cls-1" d="M33.5,207.24v-6.14c0-2.7,1.38-4.16,3.81-4.16s3.82,1.46,3.82,4.16v6.14c0,2.7-1.38,4.16-3.82,4.16s-3.81-1.48-3.81-4.16Zm5.53,.21v-6.56c0-1.46-.62-2.27-1.73-2.27s-1.69,.82-1.69,2.27v6.56c0,1.44,.6,2.27,1.69,2.27s1.73-.82,1.73-2.27Z"/>
        <path class="cls-1" d="M49.64,205.28h-1.18v5.79h-2.04v-13.79h3.24c2.52,0,3.55,1.28,3.57,3.53v.78c0,1.71-.62,2.8-1.69,3.26l2.04,6.21h-2.16l-1.79-5.79h0Zm-.1-1.41c1.15,0,1.59-.72,1.59-2.21v-.8c0-1.48-.47-2.08-1.61-2.08h-1.07v5.09h1.09Z"/>
        <path class="cls-1" d="M58.49,197.28h2.25l2.84,8.04c.25,.76,.41,1.48,.56,2.27h.06c-.1-1.11-.16-2.17-.16-3.34v-6.97h1.86v13.79h-2.08l-2.95-8.45c-.31-.89-.47-1.51-.62-2.27h-.06c.1,.93,.16,1.73,.16,2.68v8.04h-1.86v-13.79h0Z"/>
        <path class="cls-1" d="M78.8,211.06h-2.04v-6.27h-3.11v6.27h-2.04v-13.79h2.04v5.92h3.11v-5.92h2.04v13.79Z"/>
        <path class="cls-1" d="M84.08,207.24v-6.14c0-2.7,1.38-4.16,3.81-4.16s3.82,1.46,3.82,4.16v6.14c0,2.7-1.38,4.16-3.82,4.16s-3.81-1.48-3.81-4.16Zm5.53,.21v-6.56c0-1.46-.62-2.27-1.73-2.27s-1.69,.82-1.69,2.27v6.56c0,1.44,.6,2.27,1.69,2.27s1.73-.82,1.73-2.27Z"/>
        <path class="cls-1" d="M96.99,197.28h2.04v11.94h3.51v1.84h-5.55v-13.79h0Z"/>
        <path class="cls-1" d="M107.38,197.28h2.95l1.51,8.8c.12,.76,.23,1.4,.25,2.02h.08c.02-.62,.14-1.26,.25-2.02l1.51-8.8h2.93v13.79h-1.81v-7.9c0-.99,0-2.8,.04-3.77h-.08c-.08,.74-.14,1.15-.31,2.31l-1.67,9.36h-1.83l-1.69-9.36c-.17-1.16-.27-2.1-.31-2.31h-.08c.04,.97,.04,2.78,.04,3.77v7.9h-1.81v-13.79h.03Z"/>
        <path class="cls-1" d="M128.72,207.72v-1.15l2.08-.39v1.4c0,1.42,.47,2.16,1.44,2.16,.91,0,1.34-.64,1.34-1.67v-.5c0-1.09-.14-1.63-1.2-2.33l-1.65-1.05c-1.38-.89-1.86-1.92-1.86-3.34v-.7c0-2,1.34-3.2,3.38-3.2,2.17,0,3.42,.95,3.42,3.38v1.03l-2.04,.39v-1.22c0-1.28-.43-1.94-1.38-1.94-.84,0-1.28,.6-1.28,1.44v.66c0,.89,.33,1.48,1.15,1.98l1.69,1.09c1.55,.99,1.9,2.06,1.9,3.55v.74c0,2.12-1.18,3.36-3.48,3.36s-3.5-1.3-3.5-3.67v-.02Z"/>
        <path class="cls-1" d="M147.49,200.66v1.18c0,2.33-1.26,3.65-3.48,3.65h-1.28v5.57h-2.04v-13.79h3.26c2.33,0,3.51,1.15,3.53,3.38h0Zm-2.1,.15c0-1.4-.5-2-1.61-2h-1.05v5.18h1.07c1.07,0,1.59-.66,1.59-2.16v-1.03h0Z"/>
        <path class="cls-1" d="M152.33,211.06v-13.79h2.04v13.79h-2.04Z"/>
        <path class="cls-1" d="M163.32,205.28h-1.18v5.79h-2.04v-13.79h3.24c2.52,0,3.55,1.28,3.57,3.53v.78c0,1.71-.62,2.8-1.69,3.26l2.04,6.21h-2.16l-1.79-5.79h0Zm-.1-1.41c1.15,0,1.59-.72,1.59-2.21v-.8c0-1.48-.47-2.08-1.61-2.08h-1.07v5.09h1.09Z"/>
        <path class="cls-1" d="M172.17,211.06v-13.79h2.04v13.79h-2.04Z"/>
        <path class="cls-1" d="M186.25,199.06h-2.68v12h-2v-12h-2.7v-1.79h7.38v1.79h0Z"/>
        <path class="cls-1" d="M190.19,207.72v-1.15l2.08-.39v1.4c0,1.42,.47,2.16,1.44,2.16,.91,0,1.34-.64,1.34-1.67v-.5c0-1.09-.14-1.63-1.2-2.33l-1.65-1.05c-1.38-.89-1.86-1.92-1.86-3.34v-.7c0-2,1.34-3.2,3.38-3.2,2.17,0,3.42,.95,3.42,3.38v1.03l-2.04,.39v-1.22c0-1.28-.43-1.94-1.38-1.94-.84,0-1.28,.6-1.28,1.44v.66c0,.89,.33,1.48,1.15,1.98l1.69,1.09c1.55,.99,1.9,2.06,1.9,3.55v.74c0,2.12-1.18,3.36-3.48,3.36s-3.5-1.3-3.5-3.67v-.02Z"/>
      </g>
    </g>
  </g>
</svg>