<?xml version="1.0" encoding="UTF-8"?>
<svg id="Lag_2" data-name="Lag 2" xmlns="http://www.w3.org/2000/svg" viewBox="0 0 326 503.82">
  <defs>
    <style>
      .cls-1 {
        fill: #0c0c0c;
      }
    </style>
  </defs>
  <g id="Lag_1-2" data-name="Lag 1-2">
    <g>
      <g>
        <path class="cls-1" d="M63.41,365.87c-17.43,7.68-28.52-3.09-32.32-11.71-4.87-11.05-1.8-25.24,13.31-31.9,17.42-7.68,28.62,4.01,32.01,11.7,5.59,12.68,.36,26.02-13.01,31.92h0Zm-23.2-18.28c4.52,10.24,14.55,16.41,22.1,13.08,4.93-2.17,10.03-9.05,5.22-19.98-4.07-9.24-13.42-16.91-22.23-13.03-2.69,1.18-11.07,6.37-5.09,19.92h0Z"/>
        <path class="cls-1" d="M126.78,322.72c-3.69,.75-4.16,2.18-4.16,7.58v27.64c0,5.46,.48,6.89,4.16,7.58v1.36h-13.65v-1.36c3.14-.96,3.89-1.57,3.89-7.58v-3.55c0-2.66-.55-3.82-1.78-4.98l-22.8-21.16v29.69c0,5.87,.68,6.69,3.96,7.58v1.36h-13.45v-1.36c3.55-.75,4.1-2.05,4.1-7.58v-27.64c0-5.53-.48-6.76-4.1-7.58v-1.36h20.54v1.36c-.89,.21-1.37,.55-1.37,1.3s.34,1.09,1.37,2.12l13.51,12.63v-8.46c0-6.01-.75-6.55-3.89-7.58v-1.36h13.65v1.36h.02Z"/>
        <path class="cls-1" d="M196.76,335.42l-.89,.2c-3.48-7.1-7.71-9.35-15.02-9.76v32.08c0,5.32,.34,7.44,5.26,7.58v1.36h-20.55v-1.36c4.78-.14,5.19-2.32,5.19-7.58v-32.08c-6.35,.27-12.76,2.94-15.15,9.76l-.89-.2,3.07-15.08c.82,1.02,2.12,1.02,3.82,1.02h27.78c3,0,3.35-.2,4.09-1.02l3.28,15.08h0Z"/>
        <path class="cls-1" d="M248.53,322.72c-3.82,.68-4.23,2.32-4.23,7.58v27.64c0,5.32,.41,6.89,4.23,7.58v1.36h-18.91v-1.36c4.16-.48,4.5-2.39,4.5-7.58v-19.93h-17.88v19.93c0,5.26,.41,7.03,4.44,7.58v1.36h-18.7v-1.36c3.69-.75,4.09-2.12,4.09-7.58v-27.64c0-5.46-.41-6.83-4.09-7.58v-1.36h18.7v1.36c-4.03,.55-4.44,2.39-4.44,7.58v3.62h17.88v-3.62c0-5.19-.34-7.1-4.5-7.58v-1.36h18.91v1.36Z"/>
        <path class="cls-1" d="M293.03,335.62l-.96,.41c-1.5-3-5.53-10.58-16.59-10.58-5.53,0-6.28,2.25-6.28,5.87v4.23h5.53c5.19,0,6.69-1.09,6.83-5.19l.96-.14,2.87,16.86-.96,.2c-2.05-4.23-3.82-7.64-11.53-7.64h-3.69v15.9c0,4.37,.21,7.3,7.17,7.3,7.3,0,11.4-3.28,13.58-5.26,3.89-3.68,5.19-6.42,6.07-7.92l.96,.48-5.87,17.81c-.2-.27-.55-.55-.96-.75s-.96-.34-1.71-.34h-33.51v-1.36c3.68-.75,4.09-2.12,4.09-7.58v-27.64c0-5.46-.41-6.83-4.09-7.58v-1.36h31.12c2.46,0,2.94-.41,3.69-1.02l3.28,15.29h0Z"/>
        <path class="cls-1" d="M80.04,430.86h-19.39v-1.47c1.1-.07,2.94-.29,2.94-2.42,0-2.42-2.13-7.12-4.34-10.5-2.57-3.97-5.44-7.42-7.49-9.84-2.86,.88-3.38,.96-6.32,1.76v12.86c0,5.51,.37,7.64,4.92,8.15v1.47H30.02v-1.47c4.04-.73,4.48-2.35,4.48-8.15v-29.75c0-5.8-.44-7.35-4.48-8.15v-1.47h29.82c5.36,0,12.78,.81,12.78,8.01s-6.83,10.8-10.36,12.64c4.99,5.8,8.74,11.83,11.24,17.7,.44,.96,2.13,5.07,2.57,5.88,1.47,2.79,2.42,3.09,3.97,3.31v1.44Zm-34.6-27.33c4.63-1.18,15.94-3.97,15.94-11.09,0-4.77-4.55-6.24-9.18-6.24-6.76,0-6.76,1.98-6.76,5.73v11.61h0Z"/>
        <path class="cls-1" d="M118.07,429.77c-18.75,8.27-30.69-3.33-34.78-12.6-5.24-11.9-1.94-27.16,14.33-34.33,18.75-8.27,30.81,4.32,34.45,12.59,6.02,13.64,.39,28.01-14,34.35h0Zm-24.96-19.67c4.86,11.02,15.66,17.66,23.79,14.08,5.31-2.34,10.8-9.74,5.61-21.5-4.39-9.95-14.45-18.2-23.92-14.02-2.89,1.27-11.91,6.86-5.48,21.44Z"/>
        <path class="cls-1" d="M186.79,398.91l-.95,.37c-2.06-4.04-6.61-13-17.04-13-9.11,0-15.21,7.42-15.21,17.56,0,2.79,.74,12.19,7.57,17.78,3.6,2.94,8.37,4.85,13.3,4.85,10.95,0,14.69-8.23,15.79-10.58l1.1,.44-5.8,15.87c-.29-.29-.51-.44-.88-.59-.37-.15-.81-.22-1.69-.22-.59,0-1.4,.07-1.84,.07-5.29,.51-5.95,.51-8.3,.51-20.71,0-31.07-12.41-31.07-26.89,0-4.33,1.03-12.49,7.49-18.22,5.51-4.92,12.85-6.1,18.73-6.1,3.6,0,6.24,.44,9.26,.96,.22,0,1.69,.29,2.5,.29,2.2,0,2.79-1.03,3.31-1.91l3.75,18.8h-.02Z"/>
        <path class="cls-1" d="M244.81,383.34c-2.64,.59-5.8,1.32-14.25,8.01l-4.26,3.45c9.11,9.26,12.12,15.35,17.34,29.02,1.91,5.07,3.52,5.51,5.44,5.58v1.47h-19.98v-1.47c1.18-.07,2.94-.29,2.94-2.64,0-2.72-2.35-9.04-4.26-12.41-3.01-5.22-6.61-9.04-9.7-12.27l-5.07,3.75v15.43c0,5.51,.37,7.64,4.85,8.15v1.47h-20.2v-1.47c3.97-.81,4.41-2.28,4.41-8.15v-29.75c0-5.88-.44-7.35-4.41-8.15v-1.47h19.98v1.47c-4.19,.66-4.63,2.5-4.63,8.15v8.67l6.98-5.66c5.8-4.7,8.08-6.54,8.08-8.82,0-.59-.22-2.06-2.64-2.35v-1.47h19.39v1.47h-.01Z"/>
        <path class="cls-1" d="M292.14,396.41l-1.03,.22c-3.6-7.34-10.58-10.58-15.35-10.58-4.41,0-8.82,2.42-8.82,6.02,0,3.3,4.19,4.55,6.68,5.29l11.38,3.31c2.72,.81,12.27,3.67,12.27,13.37,0,6.9-5.36,17.92-22.41,17.92-2.94,0-5.36-.22-8.3-.88-3.31-.74-4.63-1.1-5.66-1.1-1.84,0-2.64,.66-3.6,1.62l-3.16-20.05,1.03-.22c.66,2.5,1.91,7.05,6.24,10.8,3.75,3.23,8.23,4.48,12.34,4.48,5.8,0,12.49-2.79,12.49-8.23,0-4.41-4.55-6.02-8.59-7.2l-10.65-3.16c-4.99-1.54-10.87-5-10.87-12.12,0-5.36,4.55-15.13,18.36-15.13,5,0,9.55,1.54,11.17,1.54,1.4,0,2.79-.44,3.89-1.54l2.57,15.65h.02Z"/>
      </g>
      <path class="cls-1" d="M326,503.82H0V163C0,119.46,16.95,78.53,47.74,47.74,78.53,16.95,119.46,0,163,0s84.47,16.95,115.26,47.74c30.79,30.79,47.74,71.72,47.74,115.26V503.82ZM3.49,500.33H322.51V163c0-42.61-16.59-82.67-46.72-112.79C245.67,20.08,205.61,3.49,163,3.49S80.33,20.08,50.21,50.21C20.09,80.34,3.49,120.39,3.49,163V500.33Z"/>
      <g>
        <path class="cls-1" d="M43.02,472.31v.64c0,3.63-1.71,5.58-5.32,5.58h-4.97v-20.63h4.85c3.6,0,5.17,1.86,5.17,4.97v.7c0,2.24-1.07,3.63-2.61,4.07,1.63,.49,2.88,1.74,2.88,4.68h0Zm-7.23-12.18v6.68h1.54c1.69,0,2.3-.99,2.3-3.23v-.67c0-1.95-.67-2.79-2.32-2.79h-1.52Zm4.1,12.13c0-2.41-.73-3.28-2.44-3.28h-1.66v7.26h1.83c1.69,0,2.27-1.13,2.27-3.25,0,0,0-.73,0-.73Z"/>
        <path class="cls-1" d="M50.13,472.81v-9.18c0-4.04,2.06-6.22,5.7-6.22s5.72,2.18,5.72,6.22v9.18c0,4.04-2.06,6.22-5.72,6.22s-5.7-2.21-5.7-6.22Zm8.28,.32v-9.82c0-2.18-.93-3.4-2.59-3.4s-2.53,1.22-2.53,3.4v9.82c0,2.15,.9,3.4,2.53,3.4s2.59-1.22,2.59-3.4Z"/>
        <path class="cls-1" d="M74.28,469.87h-1.77v8.66h-3.05v-20.63h4.85c3.78,0,5.32,1.92,5.35,5.29v1.16c0,2.56-.93,4.18-2.53,4.88l3.05,9.3h-3.23l-2.67-8.66Zm-.15-2.12c1.71,0,2.38-1.07,2.38-3.31v-1.19c0-2.21-.7-3.11-2.41-3.11h-1.6v7.61h1.63Z"/>
        <path class="cls-1" d="M87.53,457.9h3.37l4.24,12.03c.38,1.13,.61,2.21,.84,3.4h.09c-.15-1.66-.23-3.25-.23-5v-10.43h2.79v20.63h-3.11l-4.42-12.64c-.46-1.34-.7-2.27-.93-3.4h-.09c.15,1.39,.23,2.59,.23,4.01v12.03h-2.79v-20.63h.01Z"/>
        <path class="cls-1" d="M117.92,478.53h-3.05v-9.39h-4.65v9.39h-3.05v-20.63h3.05v8.86h4.65v-8.86h3.05v20.63Z"/>
        <path class="cls-1" d="M125.82,472.81v-9.18c0-4.04,2.06-6.22,5.7-6.22s5.72,2.18,5.72,6.22v9.18c0,4.04-2.06,6.22-5.72,6.22s-5.7-2.21-5.7-6.22Zm8.28,.32v-9.82c0-2.18-.93-3.4-2.59-3.4s-2.53,1.22-2.53,3.4v9.82c0,2.15,.9,3.4,2.53,3.4s2.59-1.22,2.59-3.4Z"/>
        <path class="cls-1" d="M145.14,457.9h3.05v17.87h5.26v2.76h-8.31v-20.63Z"/>
        <path class="cls-1" d="M160.69,457.9h4.42l2.27,13.16c.17,1.13,.35,2.09,.38,3.02h.12c.03-.93,.2-1.89,.38-3.02l2.27-13.16h4.39v20.63h-2.7v-11.83c0-1.48,0-4.18,.06-5.64h-.12c-.12,1.1-.2,1.71-.47,3.46l-2.5,14.01h-2.73l-2.53-14.01c-.26-1.74-.41-3.14-.46-3.46h-.12c.06,1.45,.06,4.16,.06,5.64v11.83h-2.7v-20.63h-.02Z"/>
        <path class="cls-1" d="M192.62,473.53v-1.71l3.11-.58v2.09c0,2.12,.7,3.23,2.15,3.23,1.37,0,2-.96,2-2.5v-.76c0-1.63-.2-2.44-1.8-3.49l-2.47-1.57c-2.06-1.34-2.79-2.88-2.79-5v-1.05c0-2.99,2-4.79,5.06-4.79,3.25,0,5.11,1.42,5.11,5.06v1.54l-3.05,.58v-1.83c0-1.92-.64-2.91-2.06-2.91-1.25,0-1.92,.9-1.92,2.15v.99c0,1.34,.49,2.21,1.71,2.96l2.53,1.63c2.32,1.48,2.85,3.08,2.85,5.32v1.1c0,3.17-1.77,5.03-5.2,5.03s-5.23-1.95-5.23-5.49h0Z"/>
        <path class="cls-1" d="M220.72,462.96v1.77c0,3.49-1.89,5.46-5.2,5.46h-1.92v8.34h-3.05v-20.63h4.88c3.49,0,5.26,1.71,5.29,5.06h0Zm-3.14,.2c0-2.09-.76-2.99-2.41-2.99h-1.57v7.76h1.6c1.6,0,2.38-.99,2.38-3.23v-1.54Z"/>
        <path class="cls-1" d="M227.95,478.53v-20.63h3.05v20.63h-3.05Z"/>
        <path class="cls-1" d="M244.4,469.87h-1.77v8.66h-3.05v-20.63h4.85c3.78,0,5.32,1.92,5.35,5.29v1.16c0,2.56-.93,4.18-2.53,4.88l3.05,9.3h-3.23l-2.67-8.66h0Zm-.15-2.12c1.71,0,2.38-1.07,2.38-3.31v-1.19c0-2.21-.7-3.11-2.41-3.11h-1.6v7.61h1.63Z"/>
        <path class="cls-1" d="M257.64,478.53v-20.63h3.05v20.63h-3.05Z"/>
        <path class="cls-1" d="M278.71,460.57h-4.01v17.96h-2.99v-17.96h-4.04v-2.67h11.04v2.67Z"/>
        <path class="cls-1" d="M284.61,473.53v-1.71l3.11-.58v2.09c0,2.12,.7,3.23,2.15,3.23,1.37,0,2-.96,2-2.5v-.76c0-1.63-.2-2.44-1.8-3.49l-2.47-1.57c-2.06-1.34-2.79-2.88-2.79-5v-1.05c0-2.99,2-4.79,5.06-4.79,3.25,0,5.11,1.42,5.11,5.06v1.54l-3.05,.58v-1.83c0-1.92-.64-2.91-2.06-2.91-1.25,0-1.92,.9-1.92,2.15v.99c0,1.34,.49,2.21,1.71,2.96l2.53,1.63c2.32,1.48,2.85,3.08,2.85,5.32v1.1c0,3.17-1.77,5.03-5.2,5.03s-5.23-1.95-5.23-5.49h0Z"/>
      </g>
      <g>
        <path class="cls-1" d="M53.79,238.69v2.25h-7.92v-18.57h7.74v2.25h-4.99v5.62h4.58v2.25h-4.58v6.2h5.17Z"/>
        <path class="cls-1" d="M60.02,236.44v-1.54l2.8-.52v1.88c0,1.91,.63,2.9,1.93,2.9,1.23,0,1.8-.86,1.8-2.25v-.68c0-1.46-.18-2.2-1.62-3.14l-2.22-1.41c-1.86-1.2-2.51-2.59-2.51-4.5v-.94c0-2.69,1.8-4.32,4.55-4.32,2.93,0,4.6,1.28,4.6,4.55v1.39l-2.75,.52v-1.65c0-1.73-.57-2.61-1.86-2.61-1.12,0-1.73,.81-1.73,1.93v.89c0,1.2,.44,1.99,1.54,2.67l2.28,1.46c2.09,1.33,2.56,2.77,2.56,4.79v.99c0,2.85-1.6,4.52-4.68,4.52s-4.71-1.75-4.71-4.94h.02Z"/>
        <path class="cls-1" d="M85.15,224.78h-3.61v16.16h-2.69v-16.16h-3.64v-2.41h9.94v2.41Z"/>
        <path class="cls-1" d="M93.44,240.94h-3.01v-3.5h3.01v3.5Z"/>
      </g>
      <g>
        <path class="cls-1" d="M231.13,238.8c2.2-2.72,3.53-4.55,4.71-6.38,1.05-1.7,1.59-3.35,1.59-5.05v-.99c0-1.57-.6-2.25-1.73-2.25s-1.75,.78-1.75,2.43v1.78l-2.72-.39v-1.44c0-2.95,1.75-4.58,4.6-4.58s4.39,1.33,4.39,4.29v1.02c0,1.86-.73,3.87-1.91,5.75-1.12,1.8-2.35,3.37-4.13,5.62h6.12v2.33h-9.18v-2.14h.01Z"/>
        <path class="cls-1" d="M247.03,235.61v-7.95c0-3.79,1.78-5.73,4.84-5.73s4.84,1.94,4.84,5.73v7.95c0,3.79-1.8,5.73-4.84,5.73s-4.84-1.93-4.84-5.73Zm6.98,.23v-8.39c0-2.22-.76-3.32-2.14-3.32s-2.14,1.1-2.14,3.29v8.39c0,2.22,.73,3.32,2.14,3.32s2.14-1.1,2.14-3.29Z"/>
        <path class="cls-1" d="M266.23,226.61c-.58,.6-1.65,.84-2.46,.84h-.42v-2.56h.29c1.36,0,2.67-.81,3.06-2.51h2.2v18.57h-2.67v-14.33h0Z"/>
        <path class="cls-1" d="M286.18,233.36v2.82c0,3.19-1.46,5.15-4.5,5.15-3.24,0-4.68-2.01-4.68-6.01v-7.79c0-3.92,1.73-5.6,4.68-5.6s4.34,1.26,4.34,3.87v.81l-2.67,.44v-.81c0-1.41-.47-2.22-1.7-2.22-1.39,0-1.96,.94-1.96,3.43v2.46c.58-.94,1.46-1.44,2.69-1.44,2.51,0,3.79,1.7,3.79,4.89h.01Zm-2.67,.05c0-1.83-.63-2.77-1.88-2.77-.99,0-1.59,.6-1.94,1.67v3.48c0,2.41,.71,3.37,1.99,3.37,1.18,0,1.83-.86,1.83-2.95v-2.8h0Z"/>
      </g>
      <g>
        <rect class="cls-1" x="159.63" y="210.71" width="6.39" height="80.92"/>
        <rect class="cls-1" x="128.8" y="286.45" width="68.05" height="6.39"/>
        <path class="cls-1" d="M162.83,215.82L71.47,120.79H254.19l-91.36,95.03ZM86.48,127.18l76.35,79.41,76.35-79.41s-152.7,0-152.7,0Z"/>
        <path class="cls-1" d="M163.04,185.75l-50.6-50.6,50.6-43.56,50.6,43.56-50.6,50.6h0Zm-41.21-50.25l41.21,41.21,41.21-41.21-41.21-35.47-41.21,35.47h0Z"/>
        <g>
          <rect class="cls-1" x="159.8" y="35.52" width="6.47" height="9.93"/>
          <rect class="cls-1" x="159.8" y="51.92" width="6.47" height="29.91"/>
        </g>
        <rect class="cls-1" x="118.8" y="44.02" width="6.47" height="50.9" transform="translate(-17.9 81.14) rotate(-34.42)"/>
        <rect class="cls-1" x="178.77" y="65.01" width="49.07" height="6.47" transform="translate(33.39 199.08) rotate(-56.15)"/>
        <g>
          <polygon class="cls-1" points="237.28 88.06 240.54 93.67 204.75 111.29 201.89 105.48 237.28 88.06"/>
          <polygon class="cls-1" points="258.69 84.73 246.36 90.8 243.1 85.2 255.84 78.93 258.69 84.73"/>
        </g>
        <g>
          <polygon class="cls-1" points="70.26 78.94 82.88 85.24 79.62 90.84 67.37 84.73 70.26 78.94"/>
          <polygon class="cls-1" points="123.48 105.49 120.6 111.28 85.43 93.73 88.68 88.13 123.48 105.49"/>
        </g>
        <g>
          <rect class="cls-1" x="28.8" y="120.4" width="37.58" height="6.47"/>
          <rect class="cls-1" x="259.87" y="120.4" width="37.4" height="6.47"/>
        </g>
      </g>
    </g>
  </g>
</svg>