<?xml version="1.0" encoding="UTF-8"?>
<svg id="Lag_2" data-name="Lag 2" xmlns="http://www.w3.org/2000/svg" viewBox="0 0 435.27 81.55">
  <defs>
    <style>
      .cls-1 {
        fill: #0c0c0c;
      }
    </style>
  </defs>
  <g id="Lag_1-2" data-name="Lag 1-2">
    <g>
      <path class="cls-1" d="M31.32,37.02c-13.3,8.56-23.79,1.17-28.03-5.41C-2.15,23.18-1.47,11.14,10.07,3.71c13.3-8.56,24-.42,27.78,5.44,6.23,9.68,3.67,21.3-6.53,27.87ZM9.92,25.05c5.03,7.82,14.06,11.58,19.83,7.86,3.76-2.42,7.06-8.73,1.68-17.07-4.54-7.05-13.21-12.13-19.92-7.8-2.05,1.32-8.25,6.66-1.59,17h0Z"/>
      <path class="cls-1" d="M80.24,2.66c-3.06,.62-3.46,1.81-3.46,6.29V31.91c0,4.54,.4,5.73,3.46,6.29v1.13h-11.34v-1.13c2.61-.79,3.23-1.3,3.23-6.29v-2.95c0-2.21-.45-3.17-1.47-4.14L51.73,7.25V31.91c0,4.88,.57,5.56,3.29,6.29v1.13h-11.17v-1.13c2.95-.62,3.4-1.7,3.4-6.29V8.95c0-4.59-.4-5.61-3.4-6.29V1.52h17.06v1.13c-.74,.17-1.13,.45-1.13,1.08s.28,.91,1.13,1.76l11.23,10.49v-7.03c0-4.99-.62-5.44-3.23-6.29V1.52h11.34v1.13h-.01Z"/>
      <path class="cls-1" d="M132.91,13.2l-.74,.17c-2.89-5.9-6.41-7.77-12.47-8.11V31.91c0,4.42,.28,6.18,4.36,6.29v1.13h-17.06v-1.13c3.97-.11,4.31-1.93,4.31-6.29V5.27c-5.27,.23-10.6,2.44-12.58,8.11l-.74-.17,2.55-12.53c.68,.85,1.76,.85,3.17,.85h23.07c2.49,0,2.78-.17,3.4-.85l2.72,12.53h.01Z"/>
      <path class="cls-1" d="M174.9,2.66c-3.17,.57-3.51,1.93-3.51,6.29V31.91c0,4.42,.34,5.73,3.51,6.29v1.13h-15.7v-1.13c3.46-.4,3.74-1.98,3.74-6.29V15.36h-14.85V31.91c0,4.37,.34,5.84,3.68,6.29v1.13h-15.53v-1.13c3.06-.62,3.4-1.76,3.4-6.29V8.95c0-4.54-.34-5.67-3.4-6.29V1.52h15.53v1.13c-3.34,.45-3.68,1.98-3.68,6.29v3h14.85v-3c0-4.31-.28-5.9-3.74-6.29V1.52h15.7v1.13h0Z"/>
      <path class="cls-1" d="M212.3,13.37l-.79,.34c-1.25-2.49-4.59-8.79-13.78-8.79-4.59,0-5.22,1.87-5.22,4.88v3.51h4.59c4.31,0,5.55-.91,5.67-4.31l.79-.11,2.38,14-.79,.17c-1.7-3.51-3.17-6.35-9.58-6.35h-3.06v13.21c0,3.63,.17,6.07,5.95,6.07,6.07,0,9.47-2.72,11.28-4.36,3.23-3.06,4.31-5.33,5.05-6.58l.79,.4-4.88,14.8c-.17-.23-.45-.45-.79-.62s-.79-.28-1.42-.28h-27.83v-1.13c3.06-.62,3.4-1.76,3.4-6.29V8.95c0-4.54-.34-5.67-3.4-6.29V1.52h25.85c2.04,0,2.44-.34,3.06-.85l2.72,12.7h0Z"/>
      <path class="cls-1" d="M272.56,39.34h-14.97v-1.13c.85-.06,2.27-.23,2.27-1.87,0-1.87-1.64-5.5-3.34-8.11-1.98-3.06-4.2-5.73-5.78-7.6-2.21,.68-2.61,.74-4.88,1.36v9.92c0,4.25,.28,5.9,3.8,6.29v1.13h-15.7v-1.13c3.12-.57,3.46-1.81,3.46-6.29V8.95c0-4.48-.34-5.67-3.46-6.29V1.52h23.02c4.14,0,9.86,.62,9.86,6.18s-5.27,8.33-7.99,9.75c3.86,4.48,6.75,9.13,8.67,13.66,.34,.74,1.64,3.91,1.98,4.54,1.13,2.15,1.87,2.38,3.06,2.55v1.13h0Zm-26.7-21.08c3.57-.91,12.3-3.06,12.3-8.56,0-3.68-3.51-4.82-7.09-4.82-5.22,0-5.22,1.53-5.22,4.42v8.96h0Z"/>
      <path class="cls-1" d="M301.58,37.84c-13.95,7.46-23.81-.77-27.5-7.67-4.73-8.85-3.08-20.79,9.02-27.26,13.95-7.45,23.96,1.53,27.24,7.68,5.42,10.15,1.93,21.53-8.77,27.25h.01Zm-20.36-13.67c4.38,8.2,13.08,12.68,19.13,9.45,3.95-2.11,7.74-8.12,3.07-16.87-3.95-7.4-12.18-13.16-19.23-9.39-2.15,1.15-8.76,5.97-2.97,16.82h0Z"/>
      <path class="cls-1" d="M352.13,14.68l-.74,.28c-1.59-3.12-5.1-10.03-13.15-10.03-7.03,0-11.73,5.73-11.73,13.55,0,2.15,.57,9.41,5.84,13.72,2.78,2.27,6.46,3.74,10.26,3.74,8.45,0,11.34-6.35,12.19-8.16l.85,.34-4.48,12.24c-.23-.23-.4-.34-.68-.45s-.62-.17-1.3-.17c-.45,0-1.08,.06-1.42,.06-4.08,.4-4.59,.4-6.41,.4-15.99,0-23.98-9.58-23.98-20.75,0-3.34,.79-9.64,5.78-14.06,4.25-3.8,9.92-4.71,14.46-4.71,2.78,0,4.82,.34,7.14,.74,.17,0,1.3,.23,1.93,.23,1.7,0,2.16-.79,2.55-1.47l2.89,14.51h0Z"/>
      <path class="cls-1" d="M394.82,2.66c-2.04,.45-4.48,1.02-11,6.18l-3.29,2.66c7.03,7.14,9.35,11.85,13.38,22.39,1.47,3.91,2.72,4.25,4.19,4.31v1.13h-15.42v-1.13c.91-.06,2.27-.23,2.27-2.04,0-2.1-1.81-6.97-3.29-9.58-2.32-4.02-5.1-6.97-7.48-9.47l-3.91,2.89v11.9c0,4.25,.28,5.9,3.74,6.29v1.13h-15.59v-1.13c3.06-.62,3.4-1.76,3.4-6.29V8.95c0-4.54-.34-5.67-3.4-6.29V1.52h15.42v1.13c-3.23,.51-3.57,1.93-3.57,6.29v6.69l5.39-4.36c4.48-3.63,6.24-5.05,6.24-6.8,0-.45-.17-1.59-2.04-1.81V1.52h14.97v1.13h0Z"/>
      <path class="cls-1" d="M431.29,12.75l-.79,.17c-2.78-5.67-8.16-8.16-11.85-8.16-3.4,0-6.8,1.87-6.8,4.65,0,2.55,3.23,3.51,5.16,4.08l8.79,2.55c2.1,.62,9.47,2.83,9.47,10.32,0,5.33-4.14,13.83-17.29,13.83-2.27,0-4.14-.17-6.41-.68-2.55-.57-3.57-.85-4.37-.85-1.42,0-2.04,.51-2.78,1.25l-2.44-15.48,.79-.17c.51,1.93,1.47,5.44,4.82,8.33,2.89,2.49,6.35,3.46,9.52,3.46,4.48,0,9.64-2.15,9.64-6.35,0-3.4-3.51-4.65-6.63-5.56l-8.22-2.44c-3.85-1.19-8.39-3.86-8.39-9.35,0-4.14,3.51-11.68,14.17-11.68,3.86,0,7.37,1.19,8.62,1.19,1.08,0,2.15-.34,3-1.19l1.98,12.07h0Z"/>
    </g>
    <g>
      <path class="cls-1" d="M107.59,76.08v.52c0,2.95-1.39,4.53-4.32,4.53h-4.04v-16.76h3.94c2.93,0,4.2,1.51,4.2,4.04v.57c0,1.82-.87,2.95-2.12,3.31,1.32,.4,2.34,1.42,2.34,3.8h0Zm-5.88-9.9v5.43h1.25c1.37,0,1.86-.8,1.86-2.62v-.54c0-1.58-.54-2.27-1.89-2.27h-1.22Zm3.33,9.84c0-1.96-.59-2.67-1.98-2.67h-1.35v5.9h1.49c1.37,0,1.84-.92,1.84-2.64,0,0,0-.59,0-.59Z"/>
      <path class="cls-1" d="M115.03,76.48v-7.46c0-3.28,1.68-5.05,4.63-5.05s4.65,1.77,4.65,5.05v7.46c0,3.28-1.68,5.05-4.65,5.05s-4.63-1.79-4.63-5.05Zm6.73,.26v-7.98c0-1.77-.76-2.76-2.1-2.76s-2.05,.99-2.05,2.76v7.98c0,1.75,.73,2.76,2.05,2.76s2.1-.99,2.1-2.76Z"/>
      <path class="cls-1" d="M136.3,74.1h-1.44v7.03h-2.48v-16.76h3.94c3.07,0,4.32,1.56,4.34,4.3v.94c0,2.08-.75,3.4-2.05,3.97l2.48,7.55h-2.62s-2.17-7.03-2.17-7.03Zm-.12-1.72c1.39,0,1.94-.87,1.94-2.69v-.97c0-1.79-.57-2.53-1.96-2.53h-1.3v6.18h1.32Z"/>
      <path class="cls-1" d="M148.72,64.37h2.74l3.45,9.77c.31,.92,.5,1.79,.68,2.76h.07c-.12-1.35-.19-2.64-.19-4.06v-8.47h2.27v16.76h-2.53l-3.59-10.27c-.38-1.09-.57-1.84-.76-2.76h-.07c.12,1.13,.19,2.1,.19,3.26v9.77h-2.27v-16.76h0Z"/>
      <path class="cls-1" d="M175.07,81.13h-2.48v-7.62h-3.78v7.62h-2.48v-16.76h2.48v7.2h3.78v-7.2h2.48v16.76Z"/>
      <path class="cls-1" d="M183.14,76.48v-7.46c0-3.28,1.68-5.05,4.63-5.05s4.65,1.77,4.65,5.05v7.46c0,3.28-1.68,5.05-4.65,5.05s-4.63-1.79-4.63-5.05Zm6.73,.26v-7.98c0-1.77-.76-2.76-2.1-2.76s-2.05,.99-2.05,2.76v7.98c0,1.75,.73,2.76,2.05,2.76s2.1-.99,2.1-2.76Z"/>
      <path class="cls-1" d="M200.5,64.37h2.48v14.52h4.27v2.24h-6.75s0-16.76,0-16.76Z"/>
      <path class="cls-1" d="M214.78,64.37h3.59l1.84,10.69c.14,.92,.28,1.7,.31,2.46h.09c.02-.76,.17-1.53,.31-2.46l1.84-10.69h3.56v16.76h-2.2v-9.61c0-1.2,0-3.4,.05-4.58h-.09c-.09,.9-.17,1.39-.38,2.81l-2.03,11.38h-2.22l-2.05-11.38c-.21-1.42-.33-2.55-.38-2.81h-.09c.05,1.18,.05,3.38,.05,4.58v9.61h-2.2v-16.76h0Z"/>
      <path class="cls-1" d="M244.03,77.07v-1.39l2.53-.47v1.7c0,1.72,.57,2.62,1.75,2.62,1.11,0,1.63-.78,1.63-2.03v-.61c0-1.32-.17-1.98-1.46-2.83l-2.01-1.27c-1.68-1.09-2.27-2.34-2.27-4.06v-.85c0-2.43,1.63-3.89,4.11-3.89,2.64,0,4.15,1.16,4.15,4.11v1.25l-2.48,.47v-1.49c0-1.56-.52-2.36-1.68-2.36-1.02,0-1.56,.73-1.56,1.75v.8c0,1.09,.4,1.79,1.39,2.41l2.05,1.32c1.89,1.2,2.31,2.5,2.31,4.32v.9c0,2.57-1.44,4.08-4.22,4.08s-4.25-1.58-4.25-4.46v-.02Z"/>
      <path class="cls-1" d="M268.52,68.48v1.44c0,2.83-1.53,4.44-4.22,4.44h-1.56v6.77h-2.48v-16.76h3.97c2.83,0,4.27,1.39,4.3,4.11h0Zm-2.55,.17c0-1.7-.61-2.43-1.96-2.43h-1.28v6.3h1.3c1.3,0,1.94-.8,1.94-2.62v-1.25Z"/>
      <path class="cls-1" d="M276.05,81.13v-16.76h2.48v16.76h-2.48Z"/>
      <path class="cls-1" d="M291.06,74.1h-1.44v7.03h-2.48v-16.76h3.94c3.07,0,4.32,1.56,4.34,4.3v.94c0,2.08-.76,3.4-2.05,3.97l2.48,7.55h-2.62s-2.17-7.03-2.17-7.03Zm-.12-1.72c1.39,0,1.94-.87,1.94-2.69v-.97c0-1.79-.57-2.53-1.96-2.53h-1.3v6.18h1.32Z"/>
      <path class="cls-1" d="M303.48,81.13v-16.76h2.48v16.76h-2.48Z"/>
      <path class="cls-1" d="M322.25,66.54h-3.26v14.59h-2.43v-14.59h-3.28v-2.17h8.97s0,2.17,0,2.17Z"/>
      <path class="cls-1" d="M328.7,77.07v-1.39l2.53-.47v1.7c0,1.72,.57,2.62,1.75,2.62,1.11,0,1.63-.78,1.63-2.03v-.61c0-1.32-.17-1.98-1.46-2.83l-2.01-1.27c-1.68-1.09-2.27-2.34-2.27-4.06v-.85c0-2.43,1.63-3.89,4.11-3.89,2.64,0,4.15,1.16,4.15,4.11v1.25l-2.48,.47v-1.49c0-1.56-.52-2.36-1.68-2.36-1.02,0-1.56,.73-1.56,1.75v.8c0,1.09,.4,1.79,1.39,2.41l2.05,1.32c1.89,1.2,2.31,2.5,2.31,4.32v.9c0,2.57-1.44,4.08-4.22,4.08s-4.25-1.58-4.25-4.46v-.02Z"/>
    </g>
  </g>
</svg>