<?xml version="1.0" encoding="UTF-8"?>
<svg id="Lag_2" data-name="Lag 2" xmlns="http://www.w3.org/2000/svg" viewBox="0 0 561 596">
  <defs>
    <style>
      .cls-1 {
        fill: #0c0c0c;
      }
    </style>
  </defs>
  <g id="Lag_1-2" data-name="Lag 1">
    <g>
      <g>
        <g>
          <rect class="cls-1" x="275.42" y="60.56" width="11.14" height="17.08"/>
          <rect class="cls-1" x="275.42" y="88.78" width="11.14" height="51.48"/>
        </g>
        <rect class="cls-1" x="204.88" y="75.2" width="11.14" height="87.6" transform="translate(-30.42 139.78) rotate(-34.42)"/>
        <rect class="cls-1" x="308.09" y="111.3" width="84.45" height="11.14" transform="translate(58.11 342.7) rotate(-56.15)"/>
        <g>
          <polygon class="cls-1" points="408.76 150.98 414.36 160.62 352.77 190.95 347.86 180.96 408.76 150.98"/>
          <polygon class="cls-1" points="445.61 145.25 424.38 155.69 418.77 146.05 440.69 135.26 445.61 145.25"/>
        </g>
        <g>
          <polygon class="cls-1" points="121.33 135.27 143.06 146.11 137.45 155.76 116.37 145.24 121.33 135.27"/>
          <polygon class="cls-1" points="212.93 180.97 207.96 190.93 147.44 160.73 153.04 151.09 212.93 180.97"/>
        </g>
        <path class="cls-1" d="M337.89,206.62l-56.48-48.51-56.48,48.51H125.81v11.14H436.5v-11.14h-98.6Zm-95.87,0l39.39-33.82,39.39,33.82h-78.77Z"/>
        <g>
          <rect class="cls-1" x="50" y="206.62" width="64.67" height="11.14"/>
          <rect class="cls-1" x="447.64" y="206.62" width="64.36" height="11.14"/>
        </g>
      </g>
      <g>
        <path class="cls-1" d="M109.11,349.66c-29.99,13.22-49.07-5.32-55.61-20.15-8.39-19.02-3.1-43.43,22.91-54.9,29.98-13.22,49.26,6.91,55.09,20.13,9.62,21.82,.62,44.78-22.38,54.92Zm-39.92-31.44c7.77,17.62,25.03,28.24,38.04,22.51,8.49-3.74,17.27-15.57,8.98-34.38-7.01-15.9-23.1-29.1-38.25-22.42-4.62,2.04-19.04,10.96-8.76,34.29Z"/>
        <path class="cls-1" d="M218.18,275.41c-6.34,1.29-7.17,3.76-7.17,13.04v47.57c0,9.4,.82,11.86,7.17,13.04v2.35h-23.49v-2.35c5.4-1.64,6.69-2.7,6.69-13.04v-6.11c0-4.58-.94-6.58-3.05-8.58l-39.23-36.41v51.09c0,10.1,1.17,11.51,6.81,13.04v2.35h-23.14v-2.35c6.11-1.29,7.05-3.53,7.05-13.04v-47.57c0-9.51-.82-11.63-7.05-13.04v-2.35h35.35v2.35c-1.53,.35-2.35,.94-2.35,2.23s.59,1.88,2.35,3.64l23.26,21.73v-14.56c0-10.33-1.29-11.28-6.69-13.04v-2.35h23.49v2.35Z"/>
        <path class="cls-1" d="M338.6,297.25l-1.53,.35c-5.99-12.22-13.27-16.09-25.84-16.8v55.2c0,9.16,.59,12.8,9.05,13.04v2.35h-35.36v-2.35c8.22-.24,8.93-3.99,8.93-13.04v-55.2c-10.92,.47-21.96,5.05-26.07,16.8l-1.53-.35,5.29-25.96c1.41,1.76,3.64,1.76,6.58,1.76h47.8c5.17,0,5.76-.35,7.05-1.76l5.64,25.96Z"/>
        <path class="cls-1" d="M427.69,275.41c-6.58,1.18-7.28,4-7.28,13.04v47.57c0,9.16,.71,11.86,7.28,13.04v2.35h-32.53v-2.35c7.17-.82,7.75-4.11,7.75-13.04v-34.3h-30.77v34.3c0,9.04,.71,12.1,7.64,13.04v2.35h-32.18v-2.35c6.34-1.29,7.05-3.64,7.05-13.04v-47.57c0-9.4-.7-11.75-7.05-13.04v-2.35h32.18v2.35c-6.93,.94-7.64,4.11-7.64,13.04v6.22h30.77v-6.22c0-8.93-.59-12.22-7.75-13.04v-2.35h32.53v2.35Z"/>
        <path class="cls-1" d="M504.26,297.61l-1.64,.71c-2.58-5.17-9.51-18.21-28.54-18.21-9.51,0-10.81,3.88-10.81,10.1v7.28h9.51c8.93,0,11.51-1.88,11.75-8.92l1.64-.24,4.93,29.01-1.64,.35c-3.53-7.28-6.58-13.15-19.85-13.15h-6.34v27.37c0,7.52,.35,12.57,12.33,12.57,12.57,0,19.61-5.64,23.37-9.04,6.69-6.34,8.93-11.04,10.45-13.63l1.64,.82-10.1,30.66c-.35-.47-.94-.94-1.64-1.29-.7-.35-1.64-.59-2.94-.59h-57.67v-2.35c6.34-1.29,7.05-3.64,7.05-13.04v-47.57c0-9.4-.71-11.75-7.05-13.04v-2.35h53.56c4.23,0,5.05-.71,6.34-1.76l5.64,26.31Z"/>
        <path class="cls-1" d="M137.74,461.5h-33.37v-2.53c1.9-.13,5.06-.51,5.06-4.17,0-4.17-3.67-12.26-7.46-18.08-4.42-6.83-9.35-12.77-12.89-16.94-4.93,1.52-5.81,1.64-10.87,3.03v22.12c0,9.48,.63,13.15,8.47,14.03v2.53H51.65v-2.53c6.95-1.26,7.71-4.05,7.71-14.03v-51.2c0-9.99-.76-12.64-7.71-14.03v-2.53h51.32c9.23,0,21.99,1.39,21.99,13.78s-11.76,18.58-17.82,21.74c8.59,9.99,15.04,20.35,19.34,30.46,.76,1.64,3.66,8.72,4.42,10.11,2.53,4.8,4.17,5.31,6.83,5.69v2.53Zm-59.54-47.02c7.96-2.02,27.43-6.83,27.43-19.09,0-8.22-7.84-10.74-15.8-10.74-11.63,0-11.63,3.42-11.63,9.86v19.97Z"/>
        <path class="cls-1" d="M203.19,459.63c-32.27,14.23-52.81-5.73-59.85-21.69-9.03-20.47-3.34-46.74,24.65-59.08,32.27-14.23,53.01,7.43,59.29,21.66,10.35,23.48,.66,48.2-24.09,59.11Zm-42.96-33.83c8.36,18.97,26.94,30.4,40.94,24.23,9.14-4.03,18.59-16.76,9.66-37-7.55-17.12-24.86-31.31-41.17-24.12-4.97,2.19-20.5,11.8-9.43,36.9Z"/>
        <path class="cls-1" d="M321.43,406.51l-1.64,.63c-3.54-6.95-11.38-22.37-29.33-22.37-15.67,0-26.17,12.77-26.17,30.21,0,4.8,1.27,20.98,13.02,30.59,6.2,5.06,14.41,8.34,22.88,8.34,18.84,0,25.28-14.16,27.18-18.2l1.9,.76-9.99,27.3c-.51-.51-.88-.76-1.52-1.01-.63-.25-1.39-.38-2.91-.38-1.01,0-2.4,.13-3.16,.13-9.1,.88-10.24,.88-14.29,.88-35.65,0-53.47-21.36-53.47-46.27,0-7.46,1.77-21.49,12.89-31.35,9.48-8.47,22.12-10.49,32.23-10.49,6.19,0,10.74,.76,15.93,1.64,.38,0,2.91,.5,4.3,.5,3.79,0,4.8-1.77,5.69-3.29l6.45,32.36Z"/>
        <path class="cls-1" d="M421.29,379.71c-4.55,1.01-9.99,2.28-24.52,13.78l-7.33,5.94c15.67,15.93,20.86,26.42,29.83,49.93,3.29,8.72,6.07,9.48,9.35,9.61v2.53h-34.38v-2.53c2.02-.13,5.06-.51,5.06-4.55,0-4.68-4.05-15.55-7.33-21.36-5.18-8.97-11.38-15.55-16.68-21.11l-8.72,6.45v26.55c0,9.48,.63,13.15,8.34,14.03v2.53h-34.76v-2.53c6.83-1.39,7.58-3.92,7.58-14.03v-51.2c0-10.11-.76-12.64-7.58-14.03v-2.53h34.38v2.53c-7.21,1.14-7.96,4.3-7.96,14.03v14.92l12.01-9.73c9.99-8.09,13.9-11.25,13.9-15.17,0-1.01-.38-3.54-4.55-4.05v-2.53h33.37v2.53Z"/>
        <path class="cls-1" d="M502.72,402.21l-1.77,.38c-6.19-12.64-18.2-18.2-26.42-18.2-7.58,0-15.17,4.17-15.17,10.37,0,5.69,7.21,7.84,11.5,9.1l19.59,5.69c4.68,1.39,21.11,6.32,21.11,23.01,0,11.88-9.23,30.84-38.56,30.84-5.06,0-9.23-.38-14.28-1.52-5.69-1.27-7.96-1.9-9.73-1.9-3.16,0-4.55,1.14-6.19,2.78l-5.44-34.51,1.77-.38c1.14,4.3,3.29,12.14,10.74,18.58,6.45,5.56,14.16,7.71,21.24,7.71,9.99,0,21.49-4.8,21.49-14.16,0-7.58-7.84-10.37-14.79-12.39l-18.33-5.43c-8.59-2.66-18.71-8.6-18.71-20.86,0-9.23,7.84-26.04,31.6-26.04,8.6,0,16.43,2.65,19.22,2.65,2.4,0,4.8-.76,6.7-2.65l4.42,26.92Z"/>
      </g>
      <path class="cls-1" d="M561,596H0V280.5C0,205.58,29.18,135.14,82.16,82.16S205.58,0,280.5,0s145.36,29.18,198.34,82.16,82.16,123.42,82.16,198.34v315.5ZM6,590H555V280.5c0-73.32-28.55-142.25-80.4-194.1C422.75,34.55,353.82,6,280.5,6S138.25,34.55,86.4,86.4,6,207.18,6,280.5v309.5Z"/>
      <g>
        <path class="cls-1" d="M73.31,533.81v5.16h-18.18v-42.6h17.76v5.16h-11.46v12.9h10.5v5.16h-10.5v14.22h11.88Z"/>
        <path class="cls-1" d="M87.59,528.65v-3.54l6.42-1.2v4.32c0,4.38,1.44,6.66,4.44,6.66,2.82,0,4.14-1.98,4.14-5.16v-1.56c0-3.36-.42-5.04-3.72-7.2l-5.1-3.24c-4.26-2.76-5.76-5.94-5.76-10.32v-2.16c0-6.18,4.14-9.9,10.44-9.9,6.72,0,10.56,2.94,10.56,10.44v3.18l-6.3,1.2v-3.78c0-3.96-1.32-6-4.26-6-2.58,0-3.96,1.86-3.96,4.44v2.04c0,2.76,1.02,4.56,3.54,6.12l5.22,3.36c4.8,3.06,5.88,6.36,5.88,10.98v2.28c0,6.54-3.66,10.38-10.74,10.38s-10.8-4.02-10.8-11.34Z"/>
        <path class="cls-1" d="M145.25,501.89h-8.28v37.08h-6.18v-37.08h-8.34v-5.52h22.8v5.52Z"/>
        <path class="cls-1" d="M164.27,538.97h-6.9v-8.04h6.9v8.04Z"/>
      </g>
      <g>
        <path class="cls-1" d="M382.26,535.05c5.04-6.24,8.1-10.44,10.8-14.64,2.4-3.9,3.66-7.68,3.66-11.58v-2.28c0-3.6-1.38-5.16-3.96-5.16s-4.02,1.8-4.02,5.58v4.08l-6.24-.9v-3.3c0-6.78,4.02-10.5,10.56-10.5s10.08,3.06,10.08,9.84v2.34c0,4.26-1.68,8.88-4.38,13.2-2.58,4.14-5.4,7.74-9.48,12.9h14.04v5.34h-21.06v-4.92Z"/>
        <path class="cls-1" d="M418.74,527.73v-18.24c0-8.7,4.08-13.14,11.1-13.14s11.1,4.44,11.1,13.14v18.24c0,8.7-4.14,13.14-11.1,13.14s-11.1-4.44-11.1-13.14Zm16.02,.54v-19.26c0-5.1-1.74-7.62-4.92-7.62s-4.92,2.52-4.92,7.56v19.26c0,5.1,1.68,7.62,4.92,7.62s4.92-2.52,4.92-7.56Z"/>
        <path class="cls-1" d="M462.78,507.09c-1.32,1.38-3.78,1.92-5.64,1.92h-.96v-5.88h.66c3.12,0,6.12-1.86,7.02-5.76h5.04v42.6h-6.12v-32.88Z"/>
        <path class="cls-1" d="M508.56,522.57v6.48c0,7.32-3.36,11.82-10.32,11.82-7.44,0-10.74-4.62-10.74-13.8v-17.88c0-9,3.96-12.84,10.74-12.84,6.42,0,9.96,2.88,9.96,8.88v1.86l-6.12,1.02v-1.86c0-3.24-1.08-5.1-3.9-5.1-3.18,0-4.5,2.16-4.5,7.86v5.64c1.32-2.16,3.36-3.3,6.18-3.3,5.76,0,8.7,3.9,8.7,11.22Zm-6.12,.12c0-4.2-1.44-6.36-4.32-6.36-2.28,0-3.66,1.38-4.44,3.84v7.98c0,5.52,1.62,7.74,4.56,7.74,2.7,0,4.2-1.98,4.2-6.78v-6.42Z"/>
      </g>
      <rect class="cls-1" x="203.18" y="530.97" width="143.5" height="8"/>
    </g>
  </g>
</svg>