<?xml version="1.0" encoding="UTF-8"?>
<svg id="Lag_2" data-name="Lag 2" xmlns="http://www.w3.org/2000/svg" viewBox="0 0 558.55 812.2">
  <defs>
    <style>
      .cls-1 {
        fill: #0c0c0c;
      }
    </style>
  </defs>
  <g id="Lag_1-2" data-name="Lag 1">
    <g>
      <path class="cls-1" d="M104.31,666.37c-29.99,13.22-49.07-5.32-55.61-20.15-8.39-19.02-3.1-43.43,22.91-54.9,29.98-13.22,49.26,6.91,55.09,20.13,9.62,21.82,.62,44.78-22.38,54.92Zm-39.92-31.44c7.77,17.62,25.03,28.24,38.04,22.51,8.49-3.74,17.27-15.57,8.98-34.38-7.01-15.9-23.1-29.1-38.25-22.42-4.62,2.04-19.04,10.96-8.76,34.29Z"/>
      <path class="cls-1" d="M218.38,592.12c-6.34,1.29-7.17,3.76-7.17,13.04v47.57c0,9.4,.82,11.86,7.17,13.04v2.35h-23.49v-2.35c5.4-1.64,6.69-2.7,6.69-13.04v-6.11c0-4.58-.94-6.58-3.05-8.58l-39.23-36.41v51.09c0,10.1,1.17,11.51,6.81,13.04v2.35h-23.14v-2.35c6.11-1.29,7.05-3.53,7.05-13.04v-47.57c0-9.51-.82-11.63-7.05-13.04v-2.35h35.35v2.35c-1.53,.35-2.35,.94-2.35,2.23s.59,1.88,2.35,3.64l23.26,21.73v-14.56c0-10.33-1.29-11.28-6.69-13.04v-2.35h23.49v2.35Z"/>
      <path class="cls-1" d="M331.8,613.97l-1.53,.35c-5.99-12.22-13.27-16.09-25.84-16.8v55.2c0,9.16,.59,12.8,9.05,13.04v2.35h-35.36v-2.35c8.22-.24,8.93-3.99,8.93-13.04v-55.2c-10.92,.47-21.96,5.05-26.07,16.8l-1.53-.35,5.29-25.96c1.41,1.76,3.64,1.76,6.58,1.76h47.8c5.17,0,5.76-.35,7.05-1.76l5.64,25.96Z"/>
      <path class="cls-1" d="M423.89,592.12c-6.58,1.18-7.28,4-7.28,13.04v47.57c0,9.16,.71,11.86,7.28,13.04v2.35h-32.53v-2.35c7.17-.82,7.75-4.11,7.75-13.04v-34.3h-30.77v34.3c0,9.04,.71,12.1,7.64,13.04v2.35h-32.18v-2.35c6.34-1.29,7.05-3.64,7.05-13.04v-47.57c0-9.4-.7-11.75-7.05-13.04v-2.35h32.18v2.35c-6.93,.94-7.64,4.11-7.64,13.04v6.22h30.77v-6.22c0-8.93-.59-12.22-7.75-13.04v-2.35h32.53v2.35Z"/>
      <path class="cls-1" d="M506.46,614.32l-1.64,.71c-2.58-5.17-9.51-18.21-28.54-18.21-9.51,0-10.81,3.88-10.81,10.1v7.28h9.51c8.93,0,11.51-1.88,11.75-8.92l1.64-.24,4.93,29.01-1.64,.35c-3.53-7.28-6.58-13.15-19.85-13.15h-6.34v27.37c0,7.52,.35,12.57,12.33,12.57,12.57,0,19.61-5.64,23.37-9.04,6.69-6.34,8.93-11.04,10.45-13.63l1.64,.82-10.1,30.66c-.35-.47-.94-.94-1.64-1.29-.7-.35-1.64-.59-2.94-.59h-57.67v-2.35c6.34-1.29,7.05-3.64,7.05-13.04v-47.57c0-9.4-.71-11.75-7.05-13.04v-2.35h53.56c4.23,0,5.05-.71,6.34-1.76l5.64,26.31Z"/>
      <path class="cls-1" d="M133.94,778.21h-33.37v-2.53c1.9-.13,5.06-.51,5.06-4.17,0-4.17-3.67-12.26-7.46-18.08-4.42-6.83-9.35-12.77-12.89-16.94-4.93,1.52-5.81,1.64-10.87,3.03v22.12c0,9.48,.63,13.15,8.47,14.03v2.53H47.85v-2.53c6.95-1.26,7.71-4.05,7.71-14.03v-51.2c0-9.99-.76-12.64-7.71-14.03v-2.53h51.32c9.23,0,21.99,1.39,21.99,13.78s-11.76,18.58-17.82,21.74c8.59,9.99,15.04,20.35,19.34,30.46,.76,1.64,3.66,8.72,4.42,10.11,2.53,4.8,4.17,5.31,6.83,5.69v2.53Zm-59.54-47.02c7.96-2.02,27.43-6.83,27.43-19.09,0-8.22-7.84-10.74-15.8-10.74-11.63,0-11.63,3.42-11.63,9.86v19.97Z"/>
      <path class="cls-1" d="M203.39,776.34c-32.27,14.23-52.81-5.73-59.85-21.69-9.03-20.47-3.34-46.74,24.65-59.08,32.27-14.23,53.01,7.43,59.29,21.66,10.35,23.48,.66,48.2-24.09,59.11Zm-42.96-33.83c8.36,18.97,26.94,30.4,40.94,24.23,9.14-4.03,18.59-16.76,9.66-37-7.55-17.12-24.86-31.31-41.17-24.12-4.97,2.19-20.5,11.8-9.43,36.9Z"/>
      <path class="cls-1" d="M322.63,723.22l-1.64,.63c-3.54-6.95-11.38-22.37-29.33-22.37-15.67,0-26.17,12.77-26.17,30.21,0,4.8,1.27,20.98,13.02,30.59,6.2,5.06,14.41,8.34,22.88,8.34,18.84,0,25.28-14.16,27.18-18.2l1.9,.76-9.99,27.3c-.51-.51-.88-.76-1.52-1.01-.63-.25-1.39-.38-2.91-.38-1.01,0-2.4,.13-3.16,.13-9.1,.88-10.24,.88-14.29,.88-35.65,0-53.47-21.36-53.47-46.27,0-7.46,1.77-21.49,12.89-31.35,9.48-8.47,22.12-10.49,32.23-10.49,6.19,0,10.74,.76,15.93,1.64,.38,0,2.91,.5,4.3,.5,3.79,0,4.8-1.77,5.69-3.29l6.45,32.36Z"/>
      <path class="cls-1" d="M421.49,696.42c-4.55,1.01-9.99,2.28-24.52,13.78l-7.33,5.94c15.67,15.93,20.86,26.42,29.83,49.93,3.29,8.72,6.07,9.48,9.35,9.61v2.53h-34.38v-2.53c2.02-.13,5.06-.51,5.06-4.55,0-4.68-4.05-15.55-7.33-21.36-5.18-8.97-11.38-15.55-16.68-21.11l-8.72,6.45v26.55c0,9.48,.63,13.15,8.34,14.03v2.53h-34.76v-2.53c6.83-1.39,7.58-3.92,7.58-14.03v-51.2c0-10.11-.76-12.64-7.58-14.03v-2.53h34.38v2.53c-7.21,1.14-7.96,4.3-7.96,14.03v14.92l12.01-9.73c9.99-8.09,13.9-11.25,13.9-15.17,0-1.01-.38-3.54-4.55-4.05v-2.53h33.37v2.53Z"/>
      <path class="cls-1" d="M504.92,718.92l-1.77,.38c-6.19-12.64-18.2-18.2-26.42-18.2-7.58,0-15.17,4.17-15.17,10.37,0,5.69,7.21,7.84,11.5,9.1l19.59,5.69c4.68,1.39,21.11,6.32,21.11,23.01,0,11.88-9.23,30.84-38.56,30.84-5.06,0-9.23-.38-14.28-1.52-5.69-1.27-7.96-1.9-9.73-1.9-3.16,0-4.55,1.14-6.19,2.78l-5.44-34.51,1.77-.38c1.14,4.3,3.29,12.14,10.74,18.58,6.45,5.56,14.16,7.71,21.24,7.71,9.99,0,21.49-4.8,21.49-14.16,0-7.58-7.84-10.37-14.79-12.39l-18.33-5.43c-8.59-2.66-18.71-8.6-18.71-20.86,0-9.23,7.84-26.04,31.6-26.04,8.6,0,16.43,2.65,19.22,2.65,2.4,0,4.8-.76,6.7-2.65l4.42,26.92Z"/>
      <path class="cls-1" d="M558.55,812.2H0V279.27C0,204.68,29.05,134.55,81.8,81.8S204.68,0,279.27,0s144.73,29.05,197.48,81.8c52.75,52.75,81.8,122.88,81.8,197.48V812.2ZM6,806.2H552.55V279.27c0-72.99-28.43-141.62-80.04-193.23C420.89,34.43,352.27,6,279.27,6S137.66,34.43,86.04,86.04C34.43,137.66,6,206.28,6,279.27V806.2Z"/>
      <g>
        <path class="cls-1" d="M67.98,559.3v4.3h-15.15v-35.5h14.8v4.3h-9.55v10.75h8.75v4.3h-8.75v11.85h9.9Z"/>
        <path class="cls-1" d="M79.88,555v-2.95l5.35-1v3.6c0,3.65,1.2,5.55,3.7,5.55,2.35,0,3.45-1.65,3.45-4.3v-1.3c0-2.8-.35-4.2-3.1-6l-4.25-2.7c-3.55-2.3-4.8-4.95-4.8-8.6v-1.8c0-5.15,3.45-8.25,8.7-8.25,5.6,0,8.8,2.45,8.8,8.7v2.65l-5.25,1v-3.15c0-3.3-1.1-5-3.55-5-2.15,0-3.3,1.55-3.3,3.7v1.7c0,2.3,.85,3.8,2.95,5.1l4.35,2.8c4,2.55,4.9,5.3,4.9,9.15v1.9c0,5.45-3.05,8.65-8.95,8.65s-9-3.35-9-9.45Z"/>
        <path class="cls-1" d="M127.93,532.7h-6.9v30.9h-5.15v-30.9h-6.95v-4.6h19v4.6Z"/>
        <path class="cls-1" d="M143.78,563.6h-5.75v-6.7h5.75v6.7Z"/>
      </g>
      <g>
        <path class="cls-1" d="M401.85,560.5c4.2-5.2,6.75-8.7,9-12.2,2-3.25,3.05-6.4,3.05-9.65v-1.9c0-3-1.15-4.3-3.3-4.3s-3.35,1.5-3.35,4.65v3.4l-5.2-.75v-2.75c0-5.65,3.35-8.75,8.8-8.75s8.4,2.55,8.4,8.2v1.95c0,3.55-1.4,7.4-3.65,11-2.15,3.45-4.5,6.45-7.9,10.75h11.7v4.45h-17.55v-4.1Z"/>
        <path class="cls-1" d="M432.25,554.4v-15.2c0-7.25,3.4-10.95,9.25-10.95s9.25,3.7,9.25,10.95v15.2c0,7.25-3.45,10.95-9.25,10.95s-9.25-3.7-9.25-10.95Zm13.35,.45v-16.05c0-4.25-1.45-6.35-4.1-6.35s-4.1,2.1-4.1,6.3v16.05c0,4.25,1.4,6.35,4.1,6.35s4.1-2.1,4.1-6.3Z"/>
        <path class="cls-1" d="M468.96,537.2c-1.1,1.15-3.15,1.6-4.7,1.6h-.8v-4.9h.55c2.6,0,5.1-1.55,5.85-4.8h4.2v35.5h-5.1v-27.4Z"/>
        <path class="cls-1" d="M507.11,550.1v5.4c0,6.1-2.8,9.85-8.6,9.85-6.2,0-8.95-3.85-8.95-11.5v-14.9c0-7.5,3.3-10.7,8.95-10.7,5.35,0,8.3,2.4,8.3,7.4v1.55l-5.1,.85v-1.55c0-2.7-.9-4.25-3.25-4.25-2.65,0-3.75,1.8-3.75,6.55v4.7c1.1-1.8,2.8-2.75,5.15-2.75,4.8,0,7.25,3.25,7.25,9.35Zm-5.1,.1c0-3.5-1.2-5.3-3.6-5.3-1.9,0-3.05,1.15-3.7,3.2v6.65c0,4.6,1.35,6.45,3.8,6.45,2.25,0,3.5-1.65,3.5-5.65v-5.35Z"/>
      </g>
      <g>
        <rect class="cls-1" x="442.99" y="384.99" width="20.47" height="20.47" transform="translate(412.21 -204.72) rotate(45)"/>
        <path class="cls-1" d="M453.23,414.65l-19.43-19.43,19.43-19.43,19.43,19.43-19.43,19.43Zm-9.53-19.43l9.53,9.53,9.53-9.53-9.53-9.53-9.53,9.53Z"/>
      </g>
      <g>
        <rect class="cls-1" x="94.99" y="384.99" width="20.47" height="20.47" transform="translate(310.29 41.35) rotate(45)"/>
        <path class="cls-1" d="M105.23,414.65l-19.43-19.43,19.43-19.43,19.43,19.43-19.43,19.43Zm-9.53-19.43l9.53,9.53,9.53-9.53-9.53-9.53-9.53,9.53Z"/>
      </g>
      <g>
        <rect class="cls-1" x="274.14" y="386.57" width="11" height="162.43"/>
        <rect class="cls-1" x="223.72" y="539.51" width="111.84" height="11"/>
        <path class="cls-1" d="M279.64,396.46L130.5,207H428.78l-149.14,189.46Zm-126.48-178.46l126.48,160.67,126.48-160.67H153.16Z"/>
        <path class="cls-1" d="M280,318.78l-87.08-87.08,87.08-74.96,87.08,74.96-87.08,87.08Zm-70.92-86.48l70.92,70.92,70.92-70.92-70.92-61.04-70.92,61.04Z"/>
        <g>
          <rect class="cls-1" x="274.42" y="60.26" width="11.14" height="17.08"/>
          <rect class="cls-1" x="274.42" y="88.48" width="11.14" height="51.48"/>
        </g>
        <rect class="cls-1" x="203.88" y="74.91" width="11.14" height="87.6" transform="translate(-30.43 139.16) rotate(-34.42)"/>
        <rect class="cls-1" x="307.09" y="111.01" width="84.45" height="11.14" transform="translate(57.91 341.74) rotate(-56.15)"/>
        <g>
          <polygon class="cls-1" points="407.76 150.68 413.36 160.32 351.77 190.65 346.86 180.66 407.76 150.68"/>
          <polygon class="cls-1" points="444.61 144.95 423.38 155.4 417.77 145.76 439.69 134.96 444.61 144.95"/>
        </g>
        <g>
          <polygon class="cls-1" points="120.33 134.97 142.06 145.82 136.45 155.46 115.37 144.94 120.33 134.97"/>
          <polygon class="cls-1" points="211.93 180.67 206.97 190.64 146.44 160.44 152.04 150.79 211.93 180.67"/>
        </g>
        <g>
          <rect class="cls-1" x="49" y="206.32" width="64.67" height="11.14"/>
          <rect class="cls-1" x="446.64" y="206.32" width="64.36" height="11.14"/>
        </g>
      </g>
    </g>
  </g>
</svg>