<?xml version="1.0" encoding="UTF-8"?>
<svg id="Lag_2" data-name="Lag 2" xmlns="http://www.w3.org/2000/svg" viewBox="0 0 469.79 211.4">
  <defs>
    <style>
      .cls-1 {
        fill: #f5f5f5;
      }
    </style>
  </defs>
  <g id="Lag_2-2" data-name="Lag 2">
    <g id="Lag_1-2" data-name="Lag 1-2">
      <path class="cls-1" d="M33.19,207.3c-14.1,9.1-25.2,1.2-29.7-5.7-5.8-8.9-5-21.7,7.2-29.5,14.1-9.1,25.4-.4,29.4,5.8,6.6,10.1,3.8,22.4-6.9,29.4h0Zm-22.7-12.7c5.3,8.3,14.9,12.2,21,8.3,4-2.6,7.5-9.2,1.8-18.1-4.8-7.5-14-12.8-21.1-8.3-2.2,1.5-8.7,7.2-1.7,18.1h0Z"/>
      <path class="cls-1" d="M86.89,170.9c-3.2,.7-3.7,1.9-3.7,6.7v24.3c0,4.8,.4,6.1,3.7,6.7v1.2h-12v-1.2c2.8-.8,3.4-1.4,3.4-6.7v-3.1c0-2.3-.5-3.4-1.6-4.4l-20-18.6v26.1c0,5.2,.6,5.9,3.5,6.7v1.2h-11.8v-1.2c3.1-.7,3.6-1.8,3.6-6.7v-24.3c0-4.9-.4-5.9-3.6-6.7v-1.2h18.1v1.2c-.8,.2-1.2,.5-1.2,1.1s.3,1,1.2,1.9l11.8,11.1v-7.4c0-5.3-.7-5.8-3.4-6.7v-1.2h12v1.2Z"/>
      <path class="cls-1" d="M145.69,182.1l-.8,.2c-3.1-6.2-6.8-8.2-13.2-8.6v28.2c0,4.7,.3,6.5,4.6,6.7v1.2h-18.1v-1.2c4.2-.1,4.6-2,4.6-6.7v-28.2c-5.6,.2-11.2,2.6-13.3,8.6l-.8-.2,2.7-13.3c.7,.9,1.9,.9,3.4,.9h24.4c2.6,0,2.9-.2,3.6-.9l2.9,13.3h0Z"/>
      <path class="cls-1" d="M189.09,170.9c-3.4,.6-3.7,2-3.7,6.7v24.3c0,4.7,.4,6.1,3.7,6.7v1.2h-16.6v-1.2c3.7-.4,4-2.1,4-6.7v-17.5h-15.7v17.5c0,4.6,.4,6.2,3.9,6.7v1.2h-16.4v-1.2c3.2-.7,3.6-1.9,3.6-6.7v-24.3c0-4.8-.4-6-3.6-6.7v-1.2h16.4v1.2c-3.5,.5-3.9,2.1-3.9,6.7v3.2h15.7v-3.2c0-4.6-.3-6.2-4-6.7v-1.2h16.6v1.2Z"/>
      <path class="cls-1" d="M227.69,182.2l-.8,.4c-1.3-2.6-4.9-9.3-14.6-9.3-4.9,0-5.5,2-5.5,5.2v3.7h4.9c4.6,0,5.9-1,6-4.6l.8-.1,2.5,14.8-.8,.2c-1.8-3.7-3.4-6.7-10.1-6.7h-3.2v14c0,3.8,.2,6.4,6.3,6.4,6.4,0,10-2.9,11.9-4.6,3.4-3.2,4.6-5.6,5.3-7l.8,.4-5.2,15.7c-.2-.2-.5-.5-.8-.7s-.8-.3-1.5-.3h-29.5v-1.2c3.2-.7,3.6-1.9,3.6-6.7v-24.3c0-4.8-.4-6-3.6-6.7v-1.2h27.4c2.2,0,2.6-.4,3.2-.9l2.9,13.5Z"/>
      <path class="cls-1" d="M294.49,209.7h-15.8v-1.2c.9-.1,2.4-.2,2.4-2,0-2-1.7-5.8-3.5-8.6-2.1-3.2-4.4-6.1-6.1-8-2.3,.7-2.8,.8-5.2,1.4v10.5c0,4.5,.3,6.2,4,6.7v1.2h-16.6v-1.2c3.3-.6,3.7-1.9,3.7-6.7v-24.3c0-4.7-.4-6-3.7-6.7v-1.2h24.3c4.4,0,10.4,.7,10.4,6.5s-5.6,8.8-8.5,10.3c4.1,4.7,7.1,9.7,9.2,14.5,.4,.8,1.7,4.1,2.1,4.8,1.2,2.3,2,2.5,3.2,2.7l.1,1.3h0Zm-28.3-22.3c3.8-1,13-3.2,13-9.1,0-3.9-3.7-5.1-7.5-5.1-5.5,0-5.5,1.6-5.5,4.7v9.5h0Z"/>
      <path class="cls-1" d="M327.19,208.1c-14.8,7.9-25.2-.8-29.1-8.1-5-9.4-3.3-22,9.5-28.9,14.8-7.9,25.4,1.6,28.8,8.1,5.8,10.9,2.1,22.9-9.2,28.9h0Zm-21.6-14.4c4.6,8.7,13.8,13.4,20.2,10,4.2-2.2,8.2-8.6,3.2-17.9-4.2-7.8-12.9-13.9-20.4-9.9-2.1,1.2-9.1,6.3-3,17.8h0Z"/>
      <path class="cls-1" d="M380.69,183.6l-.8,.3c-1.7-3.3-5.4-10.6-13.9-10.6-7.4,0-12.4,6.1-12.4,14.3,0,2.3,.6,10,6.2,14.5,2.9,2.4,6.8,4,10.9,4,8.9,0,12-6.7,12.9-8.6l.9,.4-4.7,13c-.2-.2-.4-.4-.7-.5s-.7-.2-1.4-.2c-.5,0-1.1,.1-1.5,.1-4.3,.4-4.9,.4-6.8,.4-16.9,0-25.4-10.1-25.4-22,0-3.5,.8-10.2,6.1-14.9,4.5-4,10.5-5,15.3-5,2.9,0,5.1,.4,7.6,.8,.2,0,1.4,.2,2,.2,1.8,0,2.3-.8,2.7-1.6l3,15.4h0Z"/>
      <path class="cls-1" d="M425.89,170.9c-2.2,.5-4.7,1.1-11.6,6.5l-3.5,2.8c7.4,7.6,9.9,12.5,14.2,23.7,1.6,4.1,2.9,4.5,4.4,4.6v1.2h-16.4v-1.2c1-.1,2.4-.2,2.4-2.2,0-2.2-1.9-7.4-3.5-10.1-2.5-4.3-5.4-7.4-7.9-10l-4.1,3.1v12.6c0,4.5,.3,6.2,4,6.7v1.2h-16.5v-1.2c3.2-.7,3.6-1.9,3.6-6.7v-24.3c0-4.8-.4-6-3.6-6.7v-1.2h16.3v1.2c-3.4,.5-3.8,2-3.8,6.7v7.1l5.7-4.6c4.7-3.8,6.6-5.3,6.6-7.2,0-.5-.2-1.7-2.2-1.9v-1.2h15.8l.1,1.1h0Z"/>
      <path class="cls-1" d="M465.49,181.6l-.8,.2c-2.9-6-8.6-8.6-12.5-8.6-3.6,0-7.2,2-7.2,4.9,0,2.7,3.4,3.7,5.5,4.3l9.3,2.7c2.2,.7,10,3,10,10.9,0,5.6-4.4,14.6-18.3,14.6-2.4,0-4.4-.2-6.8-.7-2.7-.6-3.8-.9-4.6-.9-1.5,0-2.2,.5-2.9,1.3l-2.6-16.4,.8-.2c.5,2,1.6,5.8,5.1,8.8,3.1,2.6,6.7,3.7,10.1,3.7,4.7,0,10.2-2.3,10.2-6.7,0-3.6-3.7-4.9-7-5.9l-8.7-2.6c-4.1-1.3-8.9-4.1-8.9-9.9,0-4.4,3.7-12.4,15-12.4,4.1,0,7.8,1.3,9.1,1.3,1.1,0,2.3-.4,3.2-1.3l2,12.9h0Z"/>
      <rect class="cls-1" x="232.09" width="5" height="73.5"/>
      <rect class="cls-1" x="362.59" y="142.6" width="56" height="5"/>
      <path class="cls-1" d="M289.89,142l-53-52-53,52h-52.3v5h207v-5h-48.7Zm-53.1-43.6l43.4,42.6h-86.9l43.5-42.6Z"/>
      <rect class="cls-1" x="50.59" y="142.6" width="56" height="5"/>
      <rect class="cls-1" x="115.8" y="59.61" width="5" height="80.2" transform="translate(-30.53 141.99) rotate(-55.99)"/>
      <rect class="cls-1" x="163.58" y="22.19" width="5" height="75" transform="translate(-5.61 100.54) rotate(-33.15)"/>
      <rect class="cls-1" x="310.3" y="93.72" width="80.2" height="5" transform="translate(6.13 212.48) rotate(-34.01)"/>
      <rect class="cls-1" x="265.2" y="53.7" width="75" height="5" transform="translate(90.05 278.84) rotate(-56.83)"/>
    </g>
  </g>
</svg>