<?xml version="1.0" encoding="UTF-8"?>
<svg id="Lag_2" data-name="Lag 2" xmlns="http://www.w3.org/2000/svg" viewBox="0 0 561 867">
  <defs>
    <style>
      .cls-1 {
        fill: #0c0c0c;
      }
    </style>
  </defs>
  <g id="Lag_1-2" data-name="Lag 1">
    <g>
      <g>
        <path class="cls-1" d="M109.11,629.62c-29.99,13.22-49.07-5.32-55.61-20.15-8.39-19.02-3.1-43.43,22.91-54.9,29.98-13.22,49.26,6.91,55.09,20.13,9.62,21.82,.62,44.78-22.38,54.92Zm-39.92-31.44c7.77,17.62,25.03,28.24,38.04,22.51,8.49-3.74,17.27-15.57,8.98-34.38-7.01-15.9-23.1-29.1-38.25-22.42-4.62,2.04-19.04,10.96-8.76,34.29Z"/>
        <path class="cls-1" d="M218.18,555.36c-6.34,1.29-7.17,3.76-7.17,13.04v47.57c0,9.4,.82,11.86,7.17,13.04v2.35h-23.49v-2.35c5.4-1.64,6.69-2.7,6.69-13.04v-6.11c0-4.58-.94-6.58-3.05-8.58l-39.23-36.41v51.09c0,10.1,1.17,11.51,6.81,13.04v2.35h-23.14v-2.35c6.11-1.29,7.05-3.53,7.05-13.04v-47.57c0-9.51-.82-11.63-7.05-13.04v-2.35h35.35v2.35c-1.53,.35-2.35,.94-2.35,2.23s.59,1.88,2.35,3.64l23.26,21.73v-14.56c0-10.33-1.29-11.28-6.69-13.04v-2.35h23.49v2.35Z"/>
        <path class="cls-1" d="M338.6,577.21l-1.53,.35c-5.99-12.22-13.27-16.09-25.84-16.8v55.2c0,9.16,.59,12.8,9.05,13.04v2.35h-35.36v-2.35c8.22-.24,8.93-3.99,8.93-13.04v-55.2c-10.92,.47-21.96,5.05-26.07,16.8l-1.53-.35,5.29-25.96c1.41,1.76,3.64,1.76,6.58,1.76h47.8c5.17,0,5.76-.35,7.05-1.76l5.64,25.96Z"/>
        <path class="cls-1" d="M427.69,555.36c-6.58,1.18-7.28,4-7.28,13.04v47.57c0,9.16,.71,11.86,7.28,13.04v2.35h-32.53v-2.35c7.17-.82,7.75-4.11,7.75-13.04v-34.3h-30.77v34.3c0,9.04,.71,12.1,7.64,13.04v2.35h-32.18v-2.35c6.34-1.29,7.05-3.64,7.05-13.04v-47.57c0-9.4-.7-11.75-7.05-13.04v-2.35h32.18v2.35c-6.93,.94-7.64,4.11-7.64,13.04v6.22h30.77v-6.22c0-8.93-.59-12.22-7.75-13.04v-2.35h32.53v2.35Z"/>
        <path class="cls-1" d="M504.26,577.56l-1.64,.71c-2.58-5.17-9.51-18.21-28.54-18.21-9.51,0-10.81,3.88-10.81,10.1v7.28h9.51c8.93,0,11.51-1.88,11.75-8.92l1.64-.24,4.93,29.01-1.64,.35c-3.53-7.28-6.58-13.15-19.85-13.15h-6.34v27.37c0,7.52,.35,12.57,12.33,12.57,12.57,0,19.61-5.64,23.37-9.04,6.69-6.34,8.93-11.04,10.45-13.63l1.64,.82-10.1,30.66c-.35-.47-.94-.94-1.64-1.29-.7-.35-1.64-.59-2.94-.59h-57.67v-2.35c6.34-1.29,7.05-3.64,7.05-13.04v-47.57c0-9.4-.71-11.75-7.05-13.04v-2.35h53.56c4.23,0,5.05-.71,6.34-1.76l5.64,26.31Z"/>
        <path class="cls-1" d="M137.74,741.45h-33.37v-2.53c1.9-.13,5.06-.51,5.06-4.17,0-4.17-3.67-12.26-7.46-18.08-4.42-6.83-9.35-12.77-12.89-16.94-4.93,1.52-5.81,1.64-10.87,3.03v22.12c0,9.48,.63,13.15,8.47,14.03v2.53H51.65v-2.53c6.95-1.26,7.71-4.05,7.71-14.03v-51.2c0-9.99-.76-12.64-7.71-14.03v-2.53h51.32c9.23,0,21.99,1.39,21.99,13.78s-11.76,18.58-17.82,21.74c8.59,9.99,15.04,20.35,19.34,30.46,.76,1.64,3.66,8.72,4.42,10.11,2.53,4.8,4.17,5.31,6.83,5.69v2.53Zm-59.54-47.02c7.96-2.02,27.43-6.83,27.43-19.09,0-8.22-7.84-10.74-15.8-10.74-11.63,0-11.63,3.42-11.63,9.86v19.97Z"/>
        <path class="cls-1" d="M203.19,739.58c-32.27,14.23-52.81-5.73-59.85-21.69-9.03-20.47-3.34-46.74,24.65-59.08,32.27-14.23,53.01,7.43,59.29,21.66,10.35,23.48,.66,48.2-24.09,59.11Zm-42.96-33.83c8.36,18.97,26.94,30.4,40.94,24.23,9.14-4.03,18.59-16.76,9.66-37-7.55-17.12-24.86-31.31-41.17-24.12-4.97,2.19-20.5,11.8-9.43,36.9Z"/>
        <path class="cls-1" d="M321.43,686.47l-1.64,.63c-3.54-6.95-11.38-22.37-29.33-22.37-15.67,0-26.17,12.77-26.17,30.21,0,4.8,1.27,20.98,13.02,30.59,6.2,5.06,14.41,8.34,22.88,8.34,18.84,0,25.28-14.16,27.18-18.2l1.9,.76-9.99,27.3c-.51-.51-.88-.76-1.52-1.01-.63-.25-1.39-.38-2.91-.38-1.01,0-2.4,.13-3.16,.13-9.1,.88-10.24,.88-14.29,.88-35.65,0-53.47-21.36-53.47-46.27,0-7.46,1.77-21.49,12.89-31.35,9.48-8.47,22.12-10.49,32.23-10.49,6.19,0,10.74,.76,15.93,1.64,.38,0,2.91,.5,4.3,.5,3.79,0,4.8-1.77,5.69-3.29l6.45,32.36Z"/>
        <path class="cls-1" d="M421.29,659.67c-4.55,1.01-9.99,2.28-24.52,13.78l-7.33,5.94c15.67,15.93,20.86,26.42,29.83,49.93,3.29,8.72,6.07,9.48,9.35,9.61v2.53h-34.38v-2.53c2.02-.13,5.06-.51,5.06-4.55,0-4.68-4.05-15.55-7.33-21.36-5.18-8.97-11.38-15.55-16.68-21.11l-8.72,6.45v26.55c0,9.48,.63,13.15,8.34,14.03v2.53h-34.76v-2.53c6.83-1.39,7.58-3.92,7.58-14.03v-51.2c0-10.11-.76-12.64-7.58-14.03v-2.53h34.38v2.53c-7.21,1.14-7.96,4.3-7.96,14.03v14.92l12.01-9.73c9.99-8.09,13.9-11.25,13.9-15.17,0-1.01-.38-3.54-4.55-4.05v-2.53h33.37v2.53Z"/>
        <path class="cls-1" d="M502.72,682.17l-1.77,.38c-6.19-12.64-18.2-18.2-26.42-18.2-7.58,0-15.17,4.17-15.17,10.37,0,5.69,7.21,7.84,11.5,9.1l19.59,5.69c4.68,1.39,21.11,6.32,21.11,23.01,0,11.88-9.23,30.84-38.56,30.84-5.06,0-9.23-.38-14.28-1.52-5.69-1.27-7.96-1.9-9.73-1.9-3.16,0-4.55,1.14-6.19,2.78l-5.44-34.51,1.77-.38c1.14,4.3,3.29,12.14,10.74,18.58,6.45,5.56,14.16,7.71,21.24,7.71,9.99,0,21.49-4.8,21.49-14.16,0-7.58-7.84-10.37-14.79-12.39l-18.33-5.43c-8.59-2.66-18.71-8.6-18.71-20.86,0-9.23,7.84-26.04,31.6-26.04,8.6,0,16.43,2.65,19.22,2.65,2.4,0,4.8-.76,6.7-2.65l4.42,26.92Z"/>
      </g>
      <path class="cls-1" d="M561,867H0V280.5C0,205.58,29.18,135.14,82.16,82.16S205.58,0,280.5,0s145.36,29.18,198.34,82.16c52.98,52.98,82.16,123.42,82.16,198.34V867ZM6,861H555V280.5c0-73.32-28.55-142.25-80.4-194.1S353.82,6,280.5,6,138.25,34.55,86.4,86.4C34.55,138.25,6,207.18,6,280.5V861Z"/>
      <g>
        <path class="cls-1" d="M74.03,812.78v1.1c0,6.25-2.95,9.6-9.15,9.6h-8.55v-35.5h8.35c6.2,0,8.9,3.2,8.9,8.55v1.2c0,3.85-1.85,6.25-4.5,7,2.8,.85,4.95,3,4.95,8.05Zm-12.45-20.95v11.5h2.65c2.9,0,3.95-1.7,3.95-5.55v-1.15c0-3.35-1.15-4.8-4-4.8h-2.6Zm7.05,20.85c0-4.15-1.25-5.65-4.2-5.65h-2.85v12.5h3.15c2.9,0,3.9-1.95,3.9-5.6v-1.25Z"/>
        <path class="cls-1" d="M86.27,813.63v-15.8c0-6.95,3.55-10.7,9.8-10.7s9.85,3.75,9.85,10.7v15.8c0,6.95-3.55,10.7-9.85,10.7s-9.8-3.8-9.8-10.7Zm14.25,.55v-16.9c0-3.75-1.6-5.85-4.45-5.85s-4.35,2.1-4.35,5.85v16.9c0,3.7,1.55,5.85,4.35,5.85s4.45-2.1,4.45-5.85Z"/>
        <path class="cls-1" d="M127.82,808.58h-3.05v14.9h-5.25v-35.5h8.35c6.5,0,9.15,3.3,9.2,9.1v2c0,4.4-1.6,7.2-4.35,8.4l5.25,16h-5.55l-4.6-14.9Zm-.25-3.65c2.95,0,4.1-1.85,4.1-5.7v-2.05c0-3.8-1.2-5.35-4.15-5.35h-2.75v13.1h2.8Z"/>
        <path class="cls-1" d="M150.62,787.98h5.8l7.3,20.7c.65,1.95,1.05,3.8,1.45,5.85h.15c-.25-2.85-.4-5.6-.4-8.6v-17.95h4.8v35.5h-5.35l-7.6-21.75c-.8-2.3-1.2-3.9-1.6-5.85h-.15c.25,2.4,.4,4.45,.4,6.9v20.7h-4.8v-35.5Z"/>
        <path class="cls-1" d="M202.92,823.48h-5.25v-16.15h-8v16.15h-5.25v-35.5h5.25v15.25h8v-15.25h5.25v35.5Z"/>
        <path class="cls-1" d="M216.52,813.63v-15.8c0-6.95,3.55-10.7,9.8-10.7s9.85,3.75,9.85,10.7v15.8c0,6.95-3.55,10.7-9.85,10.7s-9.8-3.8-9.8-10.7Zm14.25,.55v-16.9c0-3.75-1.6-5.85-4.45-5.85s-4.35,2.1-4.35,5.85v16.9c0,3.7,1.55,5.85,4.35,5.85s4.45-2.1,4.45-5.85Z"/>
        <path class="cls-1" d="M249.77,787.98h5.25v30.75h9.05v4.75h-14.3v-35.5Z"/>
        <path class="cls-1" d="M276.52,787.98h7.6l3.9,22.65c.3,1.95,.6,3.6,.65,5.2h.2c.05-1.6,.35-3.25,.65-5.2l3.9-22.65h7.55v35.5h-4.65v-20.35c0-2.55,0-7.2,.1-9.7h-.2c-.2,1.9-.35,2.95-.8,5.95l-4.3,24.1h-4.7l-4.35-24.1c-.45-3-.7-5.4-.8-5.95h-.2c.1,2.5,.1,7.15,.1,9.7v20.35h-4.65v-35.5Z"/>
        <path class="cls-1" d="M331.47,814.88v-2.95l5.35-1v3.6c0,3.65,1.2,5.55,3.7,5.55,2.35,0,3.45-1.65,3.45-4.3v-1.3c0-2.8-.35-4.2-3.1-6l-4.25-2.7c-3.55-2.3-4.8-4.95-4.8-8.6v-1.8c0-5.15,3.45-8.25,8.7-8.25,5.6,0,8.8,2.45,8.8,8.7v2.65l-5.25,1v-3.15c0-3.3-1.1-5-3.55-5-2.15,0-3.3,1.55-3.3,3.7v1.7c0,2.3,.85,3.8,2.95,5.1l4.35,2.8c4,2.55,4.9,5.3,4.9,9.15v1.9c0,5.45-3.05,8.65-8.95,8.65s-9-3.35-9-9.45Z"/>
        <path class="cls-1" d="M379.82,796.68v3.05c0,6-3.25,9.4-8.95,9.4h-3.3v14.35h-5.25v-35.5h8.4c6,0,9.05,2.95,9.1,8.7Zm-5.4,.35c0-3.6-1.3-5.15-4.15-5.15h-2.7v13.35h2.75c2.75,0,4.1-1.7,4.1-5.55v-2.65Z"/>
        <path class="cls-1" d="M392.27,823.48v-35.5h5.25v35.5h-5.25Z"/>
        <path class="cls-1" d="M420.57,808.58h-3.05v14.9h-5.25v-35.5h8.35c6.5,0,9.15,3.3,9.2,9.1v2c0,4.4-1.6,7.2-4.35,8.4l5.25,16h-5.55l-4.6-14.9Zm-.25-3.65c2.95,0,4.1-1.85,4.1-5.7v-2.05c0-3.8-1.2-5.35-4.15-5.35h-2.75v13.1h2.8Z"/>
        <path class="cls-1" d="M443.37,823.48v-35.5h5.25v35.5h-5.25Z"/>
        <path class="cls-1" d="M479.62,792.58h-6.9v30.9h-5.15v-30.9h-6.95v-4.6h19v4.6Z"/>
        <path class="cls-1" d="M489.77,814.88v-2.95l5.35-1v3.6c0,3.65,1.2,5.55,3.7,5.55,2.35,0,3.45-1.65,3.45-4.3v-1.3c0-2.8-.35-4.2-3.1-6l-4.25-2.7c-3.55-2.3-4.8-4.95-4.8-8.6v-1.8c0-5.15,3.45-8.25,8.7-8.25,5.6,0,8.8,2.45,8.8,8.7v2.65l-5.25,1v-3.15c0-3.3-1.1-5-3.55-5-2.15,0-3.3,1.55-3.3,3.7v1.7c0,2.3,.85,3.8,2.95,5.1l4.35,2.8c4,2.55,4.9,5.3,4.9,9.15v1.9c0,5.45-3.05,8.65-8.95,8.65s-9-3.35-9-9.45Z"/>
      </g>
      <g>
        <rect class="cls-1" x="440.03" y="321.99" width="20.47" height="20.47" transform="translate(366.8 -221.08) rotate(45)"/>
        <path class="cls-1" d="M450.26,351.65l-19.43-19.42,19.43-19.43,19.42,19.43-19.42,19.42Zm-9.53-19.42l9.53,9.53,9.53-9.53-9.53-9.53-9.53,9.53Z"/>
      </g>
      <g>
        <rect class="cls-1" x="104.03" y="321.99" width="20.47" height="20.47" transform="translate(268.39 16.51) rotate(45)"/>
        <path class="cls-1" d="M114.26,351.65l-19.43-19.42,19.43-19.43,19.42,19.43-19.42,19.42Zm-9.53-19.42l9.53,9.53,9.53-9.53-9.53-9.53-9.53,9.53Z"/>
      </g>
      <g>
        <path class="cls-1" d="M70.21,507.39v3.87h-13.63v-31.95h13.32v3.87h-8.59v9.67h7.88v3.87h-7.88v10.66h8.91Z"/>
        <path class="cls-1" d="M80.92,503.52v-2.66l4.81-.9v3.24c0,3.28,1.08,5,3.33,5,2.12,0,3.1-1.49,3.1-3.87v-1.17c0-2.52-.32-3.78-2.79-5.4l-3.82-2.43c-3.2-2.07-4.32-4.46-4.32-7.74v-1.62c0-4.63,3.11-7.42,7.83-7.42,5.04,0,7.92,2.21,7.92,7.83v2.38l-4.73,.9v-2.84c0-2.97-.99-4.5-3.19-4.5-1.94,0-2.97,1.39-2.97,3.33v1.53c0,2.07,.77,3.42,2.66,4.59l3.92,2.52c3.6,2.29,4.41,4.77,4.41,8.23v1.71c0,4.91-2.75,7.78-8.05,7.78s-8.1-3.01-8.1-8.5Z"/>
        <path class="cls-1" d="M124.17,483.45h-6.21v27.81h-4.63v-27.81h-6.25v-4.14h17.1v4.14Z"/>
        <path class="cls-1" d="M138.43,511.26h-5.17v-6.03h5.17v6.03Z"/>
      </g>
      <g>
        <path class="cls-1" d="M421.55,507.57c3.78-4.68,6.08-7.83,8.1-10.98,1.8-2.93,2.75-5.76,2.75-8.69v-1.71c0-2.7-1.04-3.87-2.97-3.87s-3.01,1.35-3.01,4.18v3.06l-4.68-.68v-2.47c0-5.08,3.01-7.88,7.92-7.88s7.56,2.29,7.56,7.38v1.75c0,3.2-1.26,6.66-3.29,9.9-1.94,3.1-4.05,5.8-7.11,9.67h10.53v4h-15.79v-3.69Z"/>
        <path class="cls-1" d="M448.91,502.08v-13.68c0-6.53,3.06-9.86,8.32-9.86s8.32,3.33,8.32,9.86v13.68c0,6.52-3.1,9.85-8.32,9.85s-8.32-3.33-8.32-9.85Zm12.01,.41v-14.45c0-3.82-1.3-5.71-3.69-5.71s-3.69,1.89-3.69,5.67v14.45c0,3.82,1.26,5.71,3.69,5.71s3.69-1.89,3.69-5.67Z"/>
        <path class="cls-1" d="M481.94,486.6c-.99,1.04-2.83,1.44-4.23,1.44h-.72v-4.41h.5c2.34,0,4.59-1.4,5.26-4.32h3.78v31.95h-4.59v-24.66Z"/>
        <path class="cls-1" d="M516.27,498.21v4.86c0,5.49-2.52,8.86-7.74,8.86-5.58,0-8.05-3.46-8.05-10.35v-13.41c0-6.75,2.97-9.63,8.05-9.63,4.81,0,7.47,2.16,7.47,6.66v1.39l-4.59,.77v-1.4c0-2.43-.81-3.83-2.93-3.83-2.38,0-3.37,1.62-3.37,5.89v4.23c.99-1.62,2.52-2.47,4.63-2.47,4.32,0,6.52,2.92,6.52,8.41Zm-4.59,.09c0-3.15-1.08-4.77-3.24-4.77-1.71,0-2.74,1.04-3.33,2.88v5.99c0,4.14,1.21,5.8,3.42,5.8,2.02,0,3.15-1.49,3.15-5.08v-4.82Z"/>
      </g>
      <g>
        <rect class="cls-1" x="274.71" y="362.6" width="11" height="139.26"/>
        <rect class="cls-1" x="221.65" y="492.94" width="117.11" height="11"/>
        <path class="cls-1" d="M280.21,371.39L122.99,207.86H437.43l-157.22,163.53ZM148.82,218.86l131.39,136.66,131.39-136.66H148.82Z"/>
        <path class="cls-1" d="M280.57,319.64l-87.08-87.08,87.08-74.96,87.08,74.96-87.08,87.08Zm-70.92-86.48l70.92,70.92,70.92-70.92-70.92-61.04-70.92,61.04Z"/>
        <g>
          <rect class="cls-1" x="274.99" y="61.13" width="11.14" height="17.08"/>
          <rect class="cls-1" x="274.99" y="89.35" width="11.14" height="51.48"/>
        </g>
        <rect class="cls-1" x="204.44" y="75.77" width="11.14" height="87.6" transform="translate(-30.82 139.63) rotate(-34.42)"/>
        <rect class="cls-1" x="307.66" y="111.87" width="84.45" height="11.14" transform="translate(57.45 342.59) rotate(-56.15)"/>
        <g>
          <polygon class="cls-1" points="408.32 151.55 413.93 161.19 352.34 191.51 347.43 181.52 408.32 151.55"/>
          <polygon class="cls-1" points="445.17 145.81 423.94 156.26 418.34 146.62 440.26 135.83 445.17 145.81"/>
        </g>
        <g>
          <polygon class="cls-1" points="120.9 135.84 142.62 146.68 137.02 156.32 115.94 145.8 120.9 135.84"/>
          <polygon class="cls-1" points="212.5 181.54 207.53 191.5 147 161.3 152.61 151.66 212.5 181.54"/>
        </g>
        <g>
          <rect class="cls-1" x="49.57" y="207.18" width="64.67" height="11.14"/>
          <rect class="cls-1" x="447.2" y="207.18" width="64.36" height="11.14"/>
        </g>
      </g>
    </g>
  </g>
</svg>