<?xml version="1.0" encoding="UTF-8"?>
<svg id="Lag_2" data-name="Lag 2" xmlns="http://www.w3.org/2000/svg" viewBox="0 0 460.62 195.35">
  <defs>
    <style>
      .cls-1 {
        fill: #ffe598;
      }
    </style>
  </defs>
  <g id="Lag_1-2" data-name="Lag 1-2">
    <g>
      <rect class="cls-1" x="226.97" width="9" height="13.8"/>
      <rect class="cls-1" x="226.97" y="22.8" width="9" height="41.59"/>
    </g>
    <rect class="cls-1" x="169.98" y="11.82" width="9" height="70.76" transform="translate(3.87 106.89) rotate(-34.42)"/>
    <rect class="cls-1" x="253.34" y="40.99" width="68.22" height="9" transform="translate(89.56 258.88) rotate(-56.15)"/>
    <g>
      <polygon class="cls-1" points="334.68 73.04 339.21 80.83 289.45 105.33 285.48 97.26 334.68 73.04"/>
      <polygon class="cls-1" points="364.44 68.41 347.3 76.85 342.77 69.06 360.47 60.34 364.44 68.41"/>
    </g>
    <g>
      <polygon class="cls-1" points="102.49 60.35 120.04 69.11 115.51 76.9 98.48 68.4 102.49 60.35"/>
      <polygon class="cls-1" points="176.48 97.27 172.47 105.32 123.58 80.92 128.11 73.13 176.48 97.27"/>
    </g>
    <path class="cls-1" d="M277.43,117.99l-45.63-39.19-45.63,39.19H106.11v9h250.97v-9h-79.65Zm-77.44,0l31.82-27.32,31.82,27.32h-63.64Z"/>
    <path class="cls-1" d="M33.14,191.26c-14.07,9.06-25.18,1.23-29.66-5.73-5.75-8.93-5.03-21.66,7.17-29.52,14.07-9.06,25.4-.45,29.4,5.76,6.59,10.24,3.89,22.54-6.91,29.49Zm-22.65-12.67c5.33,8.27,14.88,12.25,20.99,8.32,3.98-2.57,7.47-9.23,1.78-18.06-4.81-7.46-13.97-12.83-21.09-8.25-2.17,1.4-8.73,7.05-1.68,18h0Z"/>
    <path class="cls-1" d="M84.92,154.89c-3.24,.66-3.66,1.92-3.66,6.66v24.3c0,4.8,.42,6.06,3.66,6.66v1.2h-12v-1.2c2.76-.84,3.42-1.38,3.42-6.66v-3.12c0-2.34-.48-3.36-1.56-4.38l-20.04-18.6v26.1c0,5.16,.6,5.88,3.48,6.66v1.2h-11.82v-1.2c3.12-.66,3.6-1.8,3.6-6.66v-24.3c0-4.86-.42-5.94-3.6-6.66v-1.2h18.06v1.2c-.78,.18-1.2,.48-1.2,1.14s.3,.96,1.2,1.86l11.88,11.1v-7.44c0-5.28-.66-5.76-3.42-6.66v-1.2h12v1.2Z"/>
    <path class="cls-1" d="M140.65,166.05l-.78,.18c-3.06-6.24-6.78-8.22-13.2-8.58v28.2c0,4.68,.3,6.54,4.62,6.66v1.2h-18.06v-1.2c4.2-.12,4.56-2.04,4.56-6.66v-28.2c-5.58,.24-11.22,2.58-13.32,8.58l-.78-.18,2.7-13.26c.72,.9,1.86,.9,3.36,.9h24.42c2.64,0,2.94-.18,3.6-.9l2.88,13.26h0Z"/>
    <path class="cls-1" d="M185.09,154.89c-3.36,.6-3.72,2.04-3.72,6.66v24.3c0,4.68,.36,6.06,3.72,6.66v1.2h-16.62v-1.2c3.66-.42,3.96-2.1,3.96-6.66v-17.52h-15.72v17.52c0,4.62,.36,6.18,3.9,6.66v1.2h-16.44v-1.2c3.24-.66,3.6-1.86,3.6-6.66v-24.3c0-4.8-.36-6-3.6-6.66v-1.2h16.44v1.2c-3.54,.48-3.9,2.1-3.9,6.66v3.18h15.72v-3.18c0-4.56-.3-6.24-3.96-6.66v-1.2h16.62v1.2Z"/>
    <path class="cls-1" d="M224.66,166.23l-.84,.36c-1.32-2.64-4.86-9.3-14.58-9.3-4.86,0-5.52,1.98-5.52,5.16v3.72h4.86c4.56,0,5.88-.96,6-4.56l.84-.12,2.52,14.82-.84,.18c-1.8-3.72-3.36-6.72-10.14-6.72h-3.24v13.98c0,3.84,.18,6.42,6.3,6.42,6.42,0,10.02-2.88,11.94-4.62,3.42-3.24,4.56-5.64,5.34-6.96l.84,.42-5.16,15.66c-.18-.24-.48-.48-.84-.66s-.84-.3-1.5-.3h-29.45v-1.2c3.24-.66,3.6-1.86,3.6-6.66v-24.3c0-4.8-.36-6-3.6-6.66v-1.2h27.36c2.16,0,2.58-.36,3.24-.9l2.88,13.44h-.01Z"/>
    <path class="cls-1" d="M288.44,193.71h-15.84v-1.2c.9-.06,2.4-.24,2.4-1.98,0-1.98-1.74-5.82-3.54-8.58-2.1-3.24-4.44-6.06-6.12-8.04-2.34,.72-2.76,.78-5.16,1.44v10.5c0,4.5,.3,6.24,4.02,6.66v1.2h-16.62v-1.2c3.3-.6,3.66-1.92,3.66-6.66v-24.3c0-4.74-.36-6-3.66-6.66v-1.2h24.36c4.38,0,10.44,.66,10.44,6.54s-5.58,8.82-8.46,10.32c4.08,4.74,7.14,9.66,9.18,14.46,.36,.78,1.74,4.14,2.1,4.8,1.2,2.28,1.98,2.52,3.24,2.7v1.2h0Zm-28.26-22.32c3.78-.96,13.02-3.24,13.02-9.06,0-3.9-3.72-5.1-7.5-5.1-5.52,0-5.52,1.62-5.52,4.68v9.48h0Z"/>
    <path class="cls-1" d="M319.14,192.12c-14.76,7.89-25.2-.82-29.1-8.12-5.01-9.36-3.26-22,9.55-28.84,14.76-7.89,25.35,1.62,28.83,8.13,5.74,10.74,2.04,22.78-9.28,28.84h0Zm-21.54-14.48c4.64,8.68,13.84,13.42,20.24,10,4.18-2.23,8.19-8.6,3.24-17.86-4.19-7.83-12.88-13.93-20.35-9.94-2.28,1.22-9.28,6.32-3.14,17.8h.01Z"/>
    <path class="cls-1" d="M372.64,167.61l-.78,.3c-1.68-3.3-5.4-10.62-13.92-10.62-7.44,0-12.42,6.06-12.42,14.34,0,2.28,.6,9.96,6.18,14.52,2.94,2.4,6.84,3.96,10.86,3.96,8.94,0,12-6.72,12.9-8.64l.9,.36-4.74,12.96c-.24-.24-.42-.36-.72-.48s-.66-.18-1.38-.18c-.48,0-1.14,.06-1.5,.06-4.32,.42-4.86,.42-6.78,.42-16.92,0-25.38-10.14-25.38-21.96,0-3.54,.84-10.2,6.12-14.88,4.5-4.02,10.5-4.98,15.3-4.98,2.94,0,5.1,.36,7.56,.78,.18,0,1.38,.24,2.04,.24,1.8,0,2.28-.84,2.7-1.56l3.06,15.36h0Z"/>
    <path class="cls-1" d="M417.82,154.89c-2.16,.48-4.74,1.08-11.64,6.54l-3.48,2.82c7.44,7.56,9.9,12.54,14.16,23.7,1.56,4.14,2.88,4.5,4.44,4.56v1.2h-16.32v-1.2c.96-.06,2.4-.24,2.4-2.16,0-2.22-1.92-7.38-3.48-10.14-2.46-4.26-5.4-7.38-7.92-10.02l-4.14,3.06v12.6c0,4.5,.3,6.24,3.96,6.66v1.2h-16.5v-1.2c3.24-.66,3.6-1.86,3.6-6.66v-24.3c0-4.8-.36-6-3.6-6.66v-1.2h16.32v1.2c-3.42,.54-3.78,2.04-3.78,6.66v7.08l5.7-4.62c4.74-3.84,6.6-5.34,6.6-7.2,0-.48-.18-1.68-2.16-1.92v-1.2h15.84v1.2h0Z"/>
    <path class="cls-1" d="M456.42,165.57l-.84,.18c-2.94-6-8.64-8.64-12.54-8.64-3.6,0-7.2,1.98-7.2,4.92,0,2.7,3.42,3.72,5.46,4.32l9.3,2.7c2.22,.66,10.02,3,10.02,10.92,0,5.64-4.38,14.64-18.3,14.64-2.4,0-4.38-.18-6.78-.72-2.7-.6-3.78-.9-4.62-.9-1.5,0-2.16,.54-2.94,1.32l-2.58-16.38,.84-.18c.54,2.04,1.56,5.76,5.1,8.82,3.06,2.64,6.72,3.66,10.08,3.66,4.74,0,10.2-2.28,10.2-6.72,0-3.6-3.72-4.92-7.02-5.88l-8.7-2.58c-4.08-1.26-8.88-4.08-8.88-9.9,0-4.38,3.72-12.36,15-12.36,4.08,0,7.8,1.26,9.12,1.26,1.14,0,2.28-.36,3.18-1.26l2.1,12.78h0Z"/>
    <g>
      <rect class="cls-1" x="44.87" y="117.99" width="52.24" height="9"/>
      <rect class="cls-1" x="366.08" y="117.99" width="51.99" height="9"/>
    </g>
  </g>
</svg>